<?xml version="1.0" encoding="utf-8" standalone="no"?>
<!DOCTYPE svg PUBLIC "-//W3C//DTD SVG 1.1//EN"
  "http://www.w3.org/Graphics/SVG/1.1/DTD/svg11.dtd">
<!-- Created with matplotlib (http://matplotlib.org/) -->
<svg height="132pt" version="1.1" viewBox="0 0 127 132" width="127pt" xmlns="http://www.w3.org/2000/svg" xmlns:xlink="http://www.w3.org/1999/xlink">
 <defs>
  <style type="text/css">
*{stroke-linecap:butt;stroke-linejoin:round;}
  </style>
 </defs>
 <g id="figure_1">
  <g id="patch_1">
   <path d="
M0 132.017
L127.072 132.017
L127.072 0
L0 0
z
" style="fill:#ffffff;"/>
  </g>
  <g id="axes_1">
   <g id="patch_2">
    <path clip-path="url(#p41dcb15460)" d="
M118.8 86.4175
L116.568 87.6975
L116.568 86.4303
L7.2 86.4303
L7.2 86.4047
L116.568 86.4047
L116.568 85.1375
z
" style="stroke:#000000;"/>
   </g>
   <g id="patch_3">
    <path clip-path="url(#p41dcb15460)" d="
M29.52 9.61749
L30.636 12.1775
L29.5312 12.1775
L29.5312 124.817
L29.5088 124.817
L29.5088 12.1775
L28.404 12.1775
z
" style="stroke:#000000;"/>
   </g>
   <g id="line2d_1">
    <defs>
     <path d="
M0 1.5
C0.397805 1.5 0.77937 1.34195 1.06066 1.06066
C1.34195 0.77937 1.5 0.397805 1.5 0
C1.5 -0.397805 1.34195 -0.77937 1.06066 -1.06066
C0.77937 -1.34195 0.397805 -1.5 0 -1.5
C-0.397805 -1.5 -0.77937 -1.34195 -1.06066 -1.06066
C-1.34195 -0.77937 -1.5 -0.397805 -1.5 0
C-1.5 0.397805 -1.34195 0.77937 -1.06066 1.06066
C-0.77937 1.34195 -0.397805 1.5 0 1.5
z
" id="m8185dd89ac" style="stroke:#000000;stroke-width:0.5;"/>
    </defs>
    <g clip-path="url(#p41dcb15460)">
     <use style="stroke:#000000;stroke-width:0.5;" x="40.68" xlink:href="#m8185dd89ac" y="115.217489833"/>
    </g>
   </g>
   <g id="line2d_2">
    <path clip-path="url(#p41dcb15460)" d="
M40.68 115.217
L40.68 86.4175" style="fill:none;stroke:#808080;stroke-dasharray:6.000000,6.000000;stroke-dashoffset:0.0;"/>
   </g>
   <g id="line2d_3">
    <path clip-path="url(#p41dcb15460)" d="
M40.68 88.9775
L40.68 83.8575" style="fill:none;stroke:#000000;stroke-linecap:square;"/>
   </g>
   <g id="line2d_4">
    <g clip-path="url(#p41dcb15460)">
     <use style="stroke:#000000;stroke-width:0.5;" x="96.48" xlink:href="#m8185dd89ac" y="35.217489833"/>
    </g>
   </g>
   <g id="line2d_5">
    <path clip-path="url(#p41dcb15460)" d="
M96.48 35.2175
L96.48 86.4175" style="fill:none;stroke:#808080;stroke-dasharray:6.000000,6.000000;stroke-dashoffset:0.0;"/>
   </g>
   <g id="line2d_6">
    <path clip-path="url(#p41dcb15460)" d="
M96.48 88.9775
L96.48 83.8575" style="fill:none;stroke:#000000;stroke-linecap:square;"/>
   </g>
   <g id="line2d_7">
    <path clip-path="url(#p41dcb15460)" d="
M40.68 115.217
L41.2436 112.85
L41.8073 110.594
L42.3709 108.448
L42.9345 106.408
L43.4982 104.473
L44.0618 102.64
L44.6255 100.906
L45.1891 99.2693
L45.7527 97.7269
L46.3164 96.2765
L46.88 94.9157
L47.4436 93.642
L48.0073 92.4528
L48.5709 91.3458
L49.1345 90.3184
L49.6982 89.3681
L50.2618 88.4926
L50.8255 87.6893
L51.3891 86.9558
L51.9527 86.2895
L52.5164 85.688
L53.08 85.1489
L53.6436 84.6696
L54.2073 84.2477
L54.7709 83.8808
L55.3345 83.5662
L55.8982 83.3016
L56.4618 83.0845
L57.0255 82.9125
L57.5891 82.783
L58.1527 82.6935
L58.7164 82.6416
L59.28 82.6249
L59.8436 82.6408
L60.4073 82.6869
L60.9709 82.7607
L61.5345 82.8597
L62.0982 82.9815
L62.6618 83.1235
L63.2255 83.2834
L63.7891 83.4586
L64.3527 83.6467
L64.9164 83.8451
L65.48 84.0515
L66.0436 84.2633
L66.6073 84.4781
L67.1709 84.6934
L67.7345 84.9067
L68.2982 85.1155
L68.8618 85.3174
L69.4255 85.5099
L69.9891 85.6906
L70.5527 85.8569
L71.1164 86.0064
L71.68 86.1366
L72.2436 86.245
L72.8073 86.3292
L73.3709 86.3866
L73.9345 86.4149
L74.4982 86.4115
L75.0618 86.374
L75.6255 86.2999
L76.1891 86.1867
L76.7527 86.0319
L77.3164 85.8331
L77.88 85.5879
L78.4436 85.2936
L79.0073 84.9479
L79.5709 84.5483
L80.1345 84.0922
L80.6982 83.5773
L81.2618 83.0011
L81.8255 82.3611
L82.3891 81.6547
L82.9527 80.8796
L83.5164 80.0333
L84.08 79.1132
L84.6436 78.117
L85.2073 77.0421
L85.7709 75.8861
L86.3345 74.6465
L86.8982 73.3208
L87.4618 71.9066
L88.0255 70.4013
L88.5891 68.8025
L89.1527 67.1078
L89.7164 65.3146
L90.28 63.4205
L90.8436 61.423
L91.4073 59.3197
L91.9709 57.108
L92.5345 54.7855
L93.0982 52.3497
L93.6618 49.7982
L94.2255 47.1284
L94.7891 44.3379
L95.3527 41.4242
L95.9164 38.3849
L96.48 35.2175" style="fill:none;stroke:#0000ff;stroke-linecap:square;"/>
   </g>
   <g id="matplotlib.axis_1"/>
   <g id="matplotlib.axis_2"/>
   <g id="text_1">
    <!-- $x$ -->
    <defs>
     <path d="
M47.4062 40.7188
C44.2031 40.1094 43 37.7188 43 35.8281
C43 33.4219 44.9062 32.625 46.2969 32.625
C49.2969 32.625 51.4062 35.2188 51.4062 37.9219
C51.4062 42.1094 46.5938 44 42.4062 44
C36.2969 44 32.9062 38.0156 32 36.125
C29.7031 44 23.5 44 21.7031 44
C11.5 44 6.09375 30.9375 6.09375 28.7344
C6.09375 28.3438 6.5 27.8438 7.20312 27.8438
C8 27.8438 8.20312 28.4375 8.40625 28.8438
C11.7969 39.9219 18.5 42.0156 21.4062 42.0156
C25.9062 42.0156 26.7969 37.8125 26.7969 35.4219
C26.7969 33.2344 26.2031 30.9375 25 26.1406
L21.5938 12.4688
C20.0938 6.48438 17.2031 1 11.9062 1
C11.4062 1 8.90625 1 6.79688 2.29688
C10.4062 3 11.2031 5.98438 11.2031 7.1875
C11.2031 9.1875 9.70312 10.375 7.79688 10.375
C5.40625 10.375 2.79688 8.28125 2.79688 5.09375
C2.79688 0.890625 7.5 -1 11.7969 -1
C16.5938 -1 20 2.79688 22.0938 6.89062
C23.7031 1 28.7031 -1 32.4062 -1
C42.5938 -1 48 12.0781 48 14.2656
C48 14.7656 47.5938 15.1719 47 15.1719
C46.0938 15.1719 46 14.6719 45.7031 13.875
C43 5.09375 37.2031 1 32.7031 1
C29.2031 1 27.2969 3.59375 27.2969 7.6875
C27.2969 9.875 27.7031 11.4688 29.2969 18.0625
L32.7969 31.625
C34.2969 37.625 37.7031 42.0156 42.2969 42.0156
C42.5 42.0156 45.2969 42.0156 47.4062 40.7188" id="CMMI12-120"/>
    </defs>
    <g transform="translate(113.22 99.217489833)scale(0.12 -0.12)">
     <use transform="scale(0.9962640099626402)" xlink:href="#CMMI12-120"/>
    </g>
   </g>
   <g id="text_2">
    <!-- $y$ -->
    <defs>
     <path d="
M26.2969 -10.9375
C23.5938 -14.6719 19.7031 -18 14.7969 -18
C13.5938 -18 8.79688 -18 7.29688 -13.8906
C7.59375 -13.9844 8.09375 -13.9844 8.29688 -13.9844
C11.2969 -13.9844 13.2969 -11.3906 13.2969 -9.09375
C13.2969 -6.79688 11.4062 -6 9.90625 -6
C8.29688 -6 4.79688 -7.15625 4.79688 -11.8594
C4.79688 -16.7344 9.09375 -20.0938 14.7969 -20.0938
C24.7969 -20.0938 34.9062 -10.9375 37.7031 0.09375
L47.5 38.8281
C47.5938 39.3281 47.7969 39.9375 47.7969 40.5312
C47.7969 42.0156 46.5938 43.0156 45.0938 43.0156
C44.2031 43.0156 42.0938 42.6094 41.2969 39.6094
L33.9062 10.2812
C33.4062 8.48438 33.4062 8.28125 32.5938 7.1875
C30.5938 4.39062 27.2969 1 22.5 1
C16.9062 1 16.4062 6.48438 16.4062 9.1875
C16.4062 14.875 19.0938 22.5469 21.7969 29.7344
C22.9062 32.625 23.5 34.0312 23.5 36.0156
C23.5 40.2188 20.5 44 15.5938 44
C6.40625 44 2.70312 29.5312 2.70312 28.7344
C2.70312 28.3438 3.09375 27.8438 3.79688 27.8438
C4.70312 27.8438 4.79688 28.2344 5.20312 29.6406
C7.59375 38.0156 11.4062 42.0156 15.2969 42.0156
C16.2031 42.0156 17.9062 42.0156 17.9062 38.7188
C17.9062 36.125 16.7969 33.2344 15.2969 29.4375
C10.4062 16.3594 10.4062 13.0781 10.4062 10.6719
C10.4062 1.20312 17.2031 -1 22.2031 -1
C25.0938 -1 28.7031 -0.09375 32.2031 3.59375
L32.2969 3.5
C30.7969 -2.29688 29.7969 -6.125 26.2969 -10.9375" id="CMMI12-121"/>
    </defs>
    <g transform="translate(18.36 16.017489833)scale(0.12 -0.12)">
     <use transform="scale(0.9962640099626402)" xlink:href="#CMMI12-121"/>
    </g>
   </g>
   <g id="text_3">
    <!-- $\frac{1}{2}$ -->
    <defs>
     <path d="
M41.7031 15.4531
L39.9062 15.4531
C38.9062 8.375 38.0938 7.17188 37.7031 6.5625
C37.2031 5.76562 30 5.76562 28.5938 5.76562
L9.40625 5.76562
C13 9.67188 20 16.75 28.5 24.9531
C34.5938 30.7344 41.7031 37.5312 41.7031 47.4219
C41.7031 59.2188 32.2969 66 21.7969 66
C10.7969 66 4.09375 56.3125 4.09375 47.3438
C4.09375 43.4375 7 42.9375 8.20312 42.9375
C9.20312 42.9375 12.2031 43.5469 12.2031 47.0312
C12.2031 50.1094 9.59375 51 8.20312 51
C7.59375 51 7 50.9062 6.59375 50.7031
C8.5 59.2188 14.2969 63.4062 20.4062 63.4062
C29.0938 63.4062 34.7969 56.5156 34.7969 47.4219
C34.7969 38.7344 29.7031 31.25 24 24.75
L4.09375 2.28125
L4.09375 0
L39.2969 0
z
" id="CMR17-50"/>
     <path d="
M26.5938 63.3125
C26.5938 65.4062 26.5 65.5 25.0938 65.5
C21.2031 61.1875 15.2969 59.7969 9.70312 59.7969
C9.40625 59.7969 8.90625 59.7969 8.79688 59.6094
C8.70312 59.3906 8.70312 59.1719 8.70312 57
C11.7969 57 17 57.5938 21 59.9844
L21 7.20312
C21 3.6875 20.7969 2.5 12.2031 2.5
L9.20312 2.5
L9.20312 0
C14 0 19 0 23.7969 0
C28.5938 0 33.5938 0 38.4062 0
L38.4062 2.5
L35.4062 2.5
C26.7969 2.5 26.5938 3.59375 26.5938 7.15625
z
" id="CMR17-49"/>
    </defs>
    <g transform="translate(33.984 80.017489833)scale(0.12 -0.12)">
     <use transform="translate(0.0 73.5813544666485)scale(0.6973817666173724)" xlink:href="#CMR17-49"/>
     <use transform="scale(0.6973817666173724)" xlink:href="#CMR17-50"/>
     <path d="
M0 57.2694
L31.9832 57.2694
L31.9832 61.2543
L0 61.2543
L0 57.2694
z
"/>
    </g>
   </g>
   <g id="text_4">
    <!-- $3$ -->
    <defs>
     <path d="
M22.0938 33.7031
C31 33.7031 34.9062 25.9688 34.9062 17.0312
C34.9062 5 28.5 0.390625 22.7031 0.390625
C17.4062 0.390625 8.79688 3.03125 6.09375 10.8281
C6.59375 10.625 7.09375 10.625 7.59375 10.625
C10 10.625 11.7969 12.2188 11.7969 14.8125
C11.7969 17.7031 9.59375 19 7.59375 19
C5.90625 19 3.29688 18.2031 3.29688 14.4688
C3.29688 5.23438 12.2969 -2 22.9062 -2
C34 -2 42.5 6.71875 42.5 16.9531
C42.5 26.6719 34.5 33.6875 25 34.7969
C32.5938 36.375 39.9062 43.0625 39.9062 52.0156
C39.9062 59.6875 32 65.2969 23 65.2969
C13.9062 65.2969 5.90625 59.8281 5.90625 52.0156
C5.90625 48.5938 8.5 48 9.79688 48
C11.9062 48 13.7031 49.2969 13.7031 51.8906
C13.7031 54.4688 11.9062 55.7656 9.79688 55.7656
C9.40625 55.7656 8.90625 55.7656 8.5 55.5625
C11.4062 61.8594 19.2969 63 22.7969 63
C26.2969 63 32.9062 61.3281 32.9062 51.875
C32.9062 49.1094 32.5 44.1875 29.0938 39.8438
C26.0938 36 22.7031 36 19.4062 35.5938
C18.9062 35.5938 16.5938 35.5938 16.2031 35.5938
C15.5 35.4844 15.0938 35.3906 15.0938 34.5938
C15.0938 33.8125 15.2031 33.7031 17.2031 33.7031
z
" id="CMR17-51"/>
    </defs>
    <g transform="translate(89.784 99.217489833)scale(0.12 -0.12)">
     <use transform="scale(0.9962640099626402)" xlink:href="#CMR17-51"/>
    </g>
   </g>
  </g>
 </g>
 <defs>
  <clipPath id="p41dcb15460">
   <rect height="115.2" width="111.6" x="7.2" y="9.61748983305"/>
  </clipPath>
 </defs>
</svg>
