<?xml version="1.0" encoding="utf-8" standalone="no"?>
<!DOCTYPE svg PUBLIC "-//W3C//DTD SVG 1.1//EN"
  "http://www.w3.org/Graphics/SVG/1.1/DTD/svg11.dtd">
<!-- Created with matplotlib (http://matplotlib.org/) -->
<svg height="709pt" version="1.1" viewBox="0 0 503 709" width="503pt" xmlns="http://www.w3.org/2000/svg" xmlns:xlink="http://www.w3.org/1999/xlink">
 <defs>
  <style type="text/css">
*{stroke-linecap:butt;stroke-linejoin:round;}
  </style>
 </defs>
 <g id="figure_1">
  <g id="patch_1">
   <path d="
M0 709.741
L503.335 709.741
L503.335 0
L0 0
z
" style="fill:#ffffff;"/>
  </g>
  <g id="axes_1">
   <g id="patch_2">
    <path clip-path="url(#p255b7ebf89)" d="
M450.963 602.687
L439.384 606.899
L439.384 602.708
L26.4175 602.708
L26.4175 602.666
L439.384 602.666
L439.384 598.475
z
" style="stroke:#000000;stroke-linejoin:miter;stroke-width:2;"/>
   </g>
   <g id="patch_3">
    <path clip-path="url(#p255b7ebf89)" d="
M103.608 97.2469
L107.467 109.883
L103.627 109.883
L103.627 686.927
L103.588 686.927
L103.588 109.883
L99.748 109.883
z
" style="stroke:#000000;stroke-linejoin:miter;stroke-width:1.5;"/>
   </g>
   <g id="line2d_1">
    <defs>
     <path d="
M0 3
C0.795609 3 1.55874 2.6839 2.12132 2.12132
C2.6839 1.55874 3 0.795609 3 0
C3 -0.795609 2.6839 -1.55874 2.12132 -2.12132
C1.55874 -2.6839 0.795609 -3 0 -3
C-0.795609 -3 -1.55874 -2.6839 -2.12132 -2.12132
C-2.6839 -1.55874 -3 -0.795609 -3 0
C-3 0.795609 -2.6839 1.55874 -2.12132 2.12132
C-1.55874 2.6839 -0.795609 3 0 3
z
" id="m8b0675cc3b" style="stroke:#000000;stroke-width:0.5;"/>
    </defs>
    <g clip-path="url(#p255b7ebf89)">
     <use style="stroke:#000000;stroke-width:0.5;" x="180.7975" xlink:href="#m8b0675cc3b" y="644.806875"/>
     <use style="stroke:#000000;stroke-width:0.5;" x="219.3925" xlink:href="#m8b0675cc3b" y="539.506875"/>
     <use style="stroke:#000000;stroke-width:0.5;" x="257.9875" xlink:href="#m8b0675cc3b" y="556.354875"/>
     <use style="stroke:#000000;stroke-width:0.5;" x="296.5825" xlink:href="#m8b0675cc3b" y="497.386875"/>
     <use style="stroke:#000000;stroke-width:0.5;" x="335.1775" xlink:href="#m8b0675cc3b" y="486.856875"/>
     <use style="stroke:#000000;stroke-width:0.5;" x="393.07" xlink:href="#m8b0675cc3b" y="349.966875"/>
    </g>
   </g>
   <g id="line2d_2">
    <path clip-path="url(#p255b7ebf89)" d="
M171.149 670.277
L176.072 653.892
L180.994 638.839
L185.917 625.053
L190.84 612.472
L195.763 601.032
L200.686 590.67
L205.609 581.322
L210.531 572.925
L215.454 565.416
L220.377 558.73
L225.3 552.805
L230.223 547.577
L235.146 542.983
L240.068 538.959
L244.991 535.442
L249.914 532.368
L254.837 529.674
L259.76 527.297
L264.683 525.173
L269.605 523.238
L274.528 521.43
L279.451 519.684
L284.374 517.938
L289.297 516.128
L294.22 514.19
L299.142 512.061
L304.065 509.678
L308.988 506.977
L313.911 503.895
L318.834 500.368
L323.757 496.333
L328.679 491.726
L333.602 486.485
L338.525 480.545
L343.448 473.843
L348.371 466.316
L353.294 457.9
L358.216 448.532
L363.139 438.148
L368.062 426.685
L372.985 414.08
L377.908 400.269
L382.831 385.189
L387.753 368.776
L392.676 350.967
L397.599 331.698
L402.522 310.906
L407.445 288.527
L412.368 264.499" style="fill:none;stroke:#0000ff;stroke-linecap:square;"/>
   </g>
   <g id="line2d_3">
    <path clip-path="url(#p255b7ebf89)" d="
M142.202 637.931
L147.716 632.271
L153.23 626.61
L158.743 620.949
L164.257 615.288
L169.77 609.627
L175.284 603.966
L180.798 598.305
L186.311 592.644
L191.825 586.983
L197.338 581.322
L202.852 575.661
L208.365 570
L213.879 564.339
L219.392 558.678
L224.906 553.017
L230.42 547.356
L235.933 541.696
L241.447 536.035
L246.96 530.374
L252.474 524.713
L257.988 519.052
L263.501 513.391
L269.015 507.73
L274.528 502.069
L280.042 496.408
L285.555 490.747
L291.069 485.086
L296.582 479.425
L302.096 473.764
L307.61 468.103
L313.123 462.442
L318.637 456.782
L324.15 451.121
L329.664 445.46
L335.178 439.799
L340.691 434.138
L346.205 428.477
L351.718 422.816
L357.232 417.155
L362.745 411.494
L368.259 405.833
L373.772 400.172
L379.286 394.511
L384.8 388.85
L390.313 383.189
L395.827 377.528
L401.34 371.867
L406.854 366.207
L412.368 360.546" style="fill:none;stroke:#ff0000;stroke-linecap:square;"/>
   </g>
  </g>
 </g>
 <defs>
  <clipPath id="p255b7ebf89">
   <rect height="673.92" width="463.14" x="26.4175" y="13.006875"/>
  </clipPath>
 </defs>
</svg>
