<?xml version="1.0" encoding="utf-8" standalone="no"?>
<!DOCTYPE svg PUBLIC "-//W3C//DTD SVG 1.1//EN"
  "http://www.w3.org/Graphics/SVG/1.1/DTD/svg11.dtd">
<!-- Created with matplotlib (http://matplotlib.org/) -->
<svg height="75pt" version="1.1" viewBox="0 0 181 75" width="181pt" xmlns="http://www.w3.org/2000/svg" xmlns:xlink="http://www.w3.org/1999/xlink">
 <defs>
  <style type="text/css">
*{stroke-linecap:butt;stroke-linejoin:round;}
  </style>
 </defs>
 <g id="figure_1">
  <g id="patch_1">
   <path d="
M0 75.1107
L181.8 75.1107
L181.8 0
L0 0
z
" style="fill:#ffffff;"/>
  </g>
  <g id="axes_1">
   <g id="line2d_1">
    <path clip-path="url(#p0f5613ffbf)" d="
M7.2 44.8707
L174.6 44.8707" style="fill:none;stroke:#000000;stroke-linecap:square;"/>
   </g>
   <g id="line2d_2">
    <path clip-path="url(#p0f5613ffbf)" d="
M21.15 47.1747
L21.15 42.5667" style="fill:none;stroke:#000000;stroke-linecap:square;"/>
   </g>
   <g id="line2d_3">
    <path clip-path="url(#p0f5613ffbf)" d="
M160.65 47.1747
L160.65 42.5667" style="fill:none;stroke:#000000;stroke-linecap:square;"/>
   </g>
   <g id="line2d_4">
    <path clip-path="url(#p0f5613ffbf)" d="
M42.075 47.1747
L42.075 42.5667" style="fill:none;stroke:#000000;stroke-linecap:square;"/>
   </g>
   <g id="line2d_5">
    <path clip-path="url(#p0f5613ffbf)" d="
M83.925 47.1747
L83.925 42.5667" style="fill:none;stroke:#000000;stroke-linecap:square;"/>
   </g>
   <g id="line2d_6">
    <path clip-path="url(#p0f5613ffbf)" d="
M139.725 47.1747
L139.725 42.5667" style="fill:none;stroke:#000000;stroke-linecap:square;"/>
   </g>
   <g id="line2d_7">
    <path clip-path="url(#p0f5613ffbf)" d="
M21.15 21.8307
L42.075 21.8307" style="fill:none;stroke:#000000;stroke-linecap:square;"/>
   </g>
   <g id="line2d_8">
    <path clip-path="url(#p0f5613ffbf)" d="
M21.15 24.1347
L21.15 19.5267" style="fill:none;stroke:#000000;stroke-linecap:square;"/>
   </g>
   <g id="line2d_9">
    <path clip-path="url(#p0f5613ffbf)" d="
M42.075 24.1347
L42.075 19.5267" style="fill:none;stroke:#000000;stroke-linecap:square;"/>
   </g>
   <g id="text_1">
    <!-- $a$ -->
    <defs>
     <path d="
M30.0938 11.875
C29.5938 10.1719 29.5938 9.98438 28.2031 8.07812
C26 5.28125 21.5938 1 16.9062 1
C12.7969 1 10.5 4.6875 10.5 10.5781
C10.5 16.0625 13.5938 27.2344 15.5 31.4375
C18.9062 38.4219 23.5938 42.0156 27.5 42.0156
C34.0938 42.0156 35.4062 33.8281 35.4062 33.0312
C35.4062 32.9375 35.0938 31.625 35 31.4375
z

M36.5 37.4219
C35.4062 40.0156 32.7031 44 27.5 44
C16.2031 44 4 29.4375 4 14.6719
C4 4.79688 9.79688 -1 16.5938 -1
C22.0938 -1 26.7969 3.29688 29.5938 6.59375
C30.5938 0.703125 35.2969 -1 38.2969 -1
C41.2969 -1 43.7031 0.796875 45.5 4.39062
C47.0938 7.78125 48.5 13.875 48.5 14.2656
C48.5 14.7656 48.0938 15.1719 47.5 15.1719
C46.5938 15.1719 46.5 14.6719 46.0938 13.1719
C44.5938 7.28125 42.7031 1 38.5938 1
C35.7031 1 35.5 3.59375 35.5 5.59375
C35.5 7.89062 35.7969 8.98438 36.7031 12.875
C37.4062 15.375 37.9062 17.5625 38.7031 20.4531
C42.4062 35.4219 43.2969 39.0156 43.2969 39.6094
C43.2969 41.0156 42.2031 42.1094 40.7031 42.1094
C37.5 42.1094 36.7031 38.625 36.5 37.4219" id="CMMI12-97"/>
    </defs>
    <g transform="translate(17.6625 56.390650466)scale(0.12 -0.12)">
     <use transform="scale(0.9962640099626402)" xlink:href="#CMMI12-97"/>
    </g>
   </g>
   <g id="text_2">
    <!-- $b$ -->
    <defs>
     <path d="
M23.0938 66.5156
C23.2031 66.9219 23.4062 67.5156 23.4062 68.0156
C23.4062 69 22.4062 69 22.2031 69
C22.0938 69 18.5 68.6406 16.7031 68.3906
C15 68.3906 13.5 68.0938 11.7031 68.0938
C9.29688 67.8906 8.59375 67.7969 8.59375 66
C8.59375 65 9.59375 65 10.5938 65
C15.7031 65 15.7031 64.0938 15.7031 63.0938
C15.7031 62.4219 14.9062 59.5156 14.5 57.7344
L12.0938 48.1875
C11.0938 44.2188 5.40625 21.6562 5 19.875
C4.5 17.3906 4.5 15.7031 4.5 14.4062
C4.5 4.28125 10.2031 -1 16.7031 -1
C28.2969 -1 40.2969 13.875 40.2969 28.3438
C40.2969 37.5156 35.0938 44 27.5938 44
C22.4062 44 17.7031 39.7188 15.7969 37.7188
z

M16.7969 1
C13.5938 1 10.0938 3.39062 10.0938 11.1719
C10.0938 14.4688 10.4062 16.3594 12.2031 23.3438
C12.5 24.6406 14.0938 31.0312 14.5 32.3281
C14.7031 33.125 20.5938 42.0156 27.4062 42.0156
C31.7969 42.0156 33.7969 37.625 33.7969 32.4375
C33.7969 27.6406 31 16.3594 28.5 11.1719
C26 5.78125 21.4062 1 16.7969 1" id="CMMI12-98"/>
    </defs>
    <g transform="translate(157.1625 56.390650466)scale(0.12 -0.12)">
     <use transform="scale(0.9962640099626402)" xlink:href="#CMMI12-98"/>
    </g>
   </g>
   <g id="text_3">
    <!-- $x_1$ -->
    <defs>
     <path d="
M47.4062 40.7188
C44.2031 40.1094 43 37.7188 43 35.8281
C43 33.4219 44.9062 32.625 46.2969 32.625
C49.2969 32.625 51.4062 35.2188 51.4062 37.9219
C51.4062 42.1094 46.5938 44 42.4062 44
C36.2969 44 32.9062 38.0156 32 36.125
C29.7031 44 23.5 44 21.7031 44
C11.5 44 6.09375 30.9375 6.09375 28.7344
C6.09375 28.3438 6.5 27.8438 7.20312 27.8438
C8 27.8438 8.20312 28.4375 8.40625 28.8438
C11.7969 39.9219 18.5 42.0156 21.4062 42.0156
C25.9062 42.0156 26.7969 37.8125 26.7969 35.4219
C26.7969 33.2344 26.2031 30.9375 25 26.1406
L21.5938 12.4688
C20.0938 6.48438 17.2031 1 11.9062 1
C11.4062 1 8.90625 1 6.79688 2.29688
C10.4062 3 11.2031 5.98438 11.2031 7.1875
C11.2031 9.1875 9.70312 10.375 7.79688 10.375
C5.40625 10.375 2.79688 8.28125 2.79688 5.09375
C2.79688 0.890625 7.5 -1 11.7969 -1
C16.5938 -1 20 2.79688 22.0938 6.89062
C23.7031 1 28.7031 -1 32.4062 -1
C42.5938 -1 48 12.0781 48 14.2656
C48 14.7656 47.5938 15.1719 47 15.1719
C46.0938 15.1719 46 14.6719 45.7031 13.875
C43 5.09375 37.2031 1 32.7031 1
C29.2031 1 27.2969 3.59375 27.2969 7.6875
C27.2969 9.875 27.7031 11.4688 29.2969 18.0625
L32.7969 31.625
C34.2969 37.625 37.7031 42.0156 42.2969 42.0156
C42.5 42.0156 45.2969 42.0156 47.4062 40.7188" id="CMMI12-120"/>
     <path d="
M26.5938 63.3125
C26.5938 65.4062 26.5 65.5 25.0938 65.5
C21.2031 61.1875 15.2969 59.7969 9.70312 59.7969
C9.40625 59.7969 8.90625 59.7969 8.79688 59.6094
C8.70312 59.3906 8.70312 59.1719 8.70312 57
C11.7969 57 17 57.5938 21 59.9844
L21 7.20312
C21 3.6875 20.7969 2.5 12.2031 2.5
L9.20312 2.5
L9.20312 0
C14 0 19 0 23.7969 0
C28.5938 0 33.5938 0 38.4062 0
L38.4062 2.5
L35.4062 2.5
C26.7969 2.5 26.5938 3.59375 26.5938 7.15625
z
" id="CMR17-49"/>
    </defs>
    <g transform="translate(17.6625 39.110650466)scale(0.12 -0.12)">
     <use transform="translate(0.0 14.943914544092467)scale(0.9962640099626402)" xlink:href="#CMMI12-120"/>
     <use transform="translate(55.43405953261208 0.0)scale(0.6973817666173724)" xlink:href="#CMR17-49"/>
    </g>
   </g>
   <g id="text_4">
    <!-- $x_N$ -->
    <defs>
     <path d="
M74 57.7031
C75.0938 62 76.7031 65 84.2969 65
C84.5938 65 85.7969 65.0938 85.7969 66.8594
C85.7969 68 84.9062 68 84.5 68
C82.5 68 77.4062 68 75.4062 68
L70.5938 68
C69.2031 68 67.4062 68 66 68
C65.4062 68 64.2031 68 64.2031 66.0312
C64.2031 65 65 65 65.7031 65
C71.7031 65 72.0938 62.7031 72.0938 60.9062
C72.0938 60.0156 72 59.7031 71.7031 58.3125
L60.4062 13.2812
L39 66.2969
C38.2969 67.9062 38.2031 68 36 68
L23.7969 68
C21.7969 68 20.9062 68 20.9062 66.0312
C20.9062 65 21.5938 65 23.5 65
C24 65 29.9062 65 29.9062 64.0938
C29.9062 63.8906 29.7031 63.0938 29.5938 62.7969
L16.2969 9.89062
C15.0938 5 12.7031 2.90625 6.09375 2.90625
C5.59375 2.90625 4.59375 2.8125 4.59375 1
C4.59375 0 5.59375 0 5.90625 0
C7.90625 0 13 0 15 0
L19.7969 0
C21.2031 0 22.9062 0 24.2969 0
C25 0 26.0938 0 26.0938 1.90625
C26.0938 2.8125 25.0938 2.90625 24.7031 2.90625
C21.4062 2.90625 18.2031 3.5 18.2031 7.09375
C18.2031 7.89062 18.4062 8.78125 18.5938 9.57812
L32.0938 62.9688
C32.7031 61.9688 32.7031 61.7812 33.0938 60.875
L56.9062 1.73438
C57.4062 0.578125 57.5938 0 58.5 0
C59.5 0 59.5938 0.296875 60 2
z
" id="CMMI12-78"/>
    </defs>
    <g transform="translate(157.1625 39.110650466)scale(0.12 -0.12)">
     <use transform="translate(0.0 14.943914544092467)scale(0.9962640099626402)" xlink:href="#CMMI12-120"/>
     <use transform="translate(55.43405953261208 0.0)scale(0.6973817666173724)" xlink:href="#CMMI12-78"/>
    </g>
   </g>
   <g id="text_5">
    <!-- $x_2$ -->
    <defs>
     <path d="
M41.7031 15.4531
L39.9062 15.4531
C38.9062 8.375 38.0938 7.17188 37.7031 6.5625
C37.2031 5.76562 30 5.76562 28.5938 5.76562
L9.40625 5.76562
C13 9.67188 20 16.75 28.5 24.9531
C34.5938 30.7344 41.7031 37.5312 41.7031 47.4219
C41.7031 59.2188 32.2969 66 21.7969 66
C10.7969 66 4.09375 56.3125 4.09375 47.3438
C4.09375 43.4375 7 42.9375 8.20312 42.9375
C9.20312 42.9375 12.2031 43.5469 12.2031 47.0312
C12.2031 50.1094 9.59375 51 8.20312 51
C7.59375 51 7 50.9062 6.59375 50.7031
C8.5 59.2188 14.2969 63.4062 20.4062 63.4062
C29.0938 63.4062 34.7969 56.5156 34.7969 47.4219
C34.7969 38.7344 29.7031 31.25 24 24.75
L4.09375 2.28125
L4.09375 0
L39.2969 0
z
" id="CMR17-50"/>
    </defs>
    <g transform="translate(38.5875 39.110650466)scale(0.12 -0.12)">
     <use transform="translate(0.0 14.943914544092467)scale(0.9962640099626402)" xlink:href="#CMMI12-120"/>
     <use transform="translate(55.43405953261208 0.0)scale(0.6973817666173724)" xlink:href="#CMR17-50"/>
    </g>
   </g>
   <g id="text_6">
    <!-- $\cdots$ -->
    <defs>
     <path d="
M19.2031 25.2969
C19.2031 28.2031 16.7969 30.5938 13.9062 30.5938
C11 30.5938 8.59375 28.2031 8.59375 25.2969
C8.59375 22.3906 11 20 13.9062 20
C16.7969 20 19.2031 22.3906 19.2031 25.2969" id="CMSY10-1"/>
    </defs>
    <g transform="translate(56.025 39.110650466)scale(0.12 -0.12)">
     <use transform="scale(0.9962640099626402)" xlink:href="#CMSY10-1"/>
     <use transform="translate(44.27848996439135 0.0)scale(0.9962640099626402)" xlink:href="#CMSY10-1"/>
     <use transform="translate(88.5569799287827 0.0)scale(0.9962640099626402)" xlink:href="#CMSY10-1"/>
    </g>
   </g>
   <g id="text_7">
    <!-- $x_i$ -->
    <defs>
     <path d="
M28.2969 14.2656
C28.2969 14.7656 27.9062 15.1719 27.2969 15.1719
C26.4062 15.1719 26.2969 14.875 25.7969 13.1719
C23.2031 4.09375 19.0938 1 15.7969 1
C14.5938 1 13.2031 1.29688 13.2031 4.29688
C13.2031 6.98438 14.4062 9.98438 15.5 12.9688
L22.5 31.5312
C22.7969 32.3281 23.5 34.125 23.5 36.0156
C23.5 40.2188 20.5 44 15.5938 44
C6.40625 44 2.70312 29.5312 2.70312 28.7344
C2.70312 28.3438 3.09375 27.8438 3.79688 27.8438
C4.70312 27.8438 4.79688 28.2344 5.20312 29.625
C7.59375 37.9375 11.4062 41.9062 15.2969 41.9062
C16.2031 41.9062 17.9062 41.9062 17.9062 38.7188
C17.9062 36.125 16.5938 32.8281 15.7969 30.6406
L8.79688 12.0781
C8.20312 10.4844 7.59375 8.875 7.59375 7.07812
C7.59375 2.59375 10.7031 -1 15.5 -1
C24.7031 -1 28.2969 13.5781 28.2969 14.2656
M27.5 62.7031
C27.5 64.2031 26.2969 66 24.0938 66
C21.7969 66 19.2031 63.7969 19.2031 61.2031
C19.2031 58.7188 21.2969 57.9219 22.5 57.9219
C25.2031 57.9219 27.5 60.5156 27.5 62.7031" id="CMMI12-105"/>
    </defs>
    <g transform="translate(80.4375 39.110650466)scale(0.12 -0.12)">
     <use transform="translate(0.0 14.943914544092467)scale(0.9962640099626402)" xlink:href="#CMMI12-120"/>
     <use transform="translate(55.43405953261208 0.0)scale(0.6973817666173724)" xlink:href="#CMMI12-105"/>
    </g>
   </g>
   <g id="text_8">
    <!-- $\cdots$ -->
    <g transform="translate(97.875 39.110650466)scale(0.12 -0.12)">
     <use transform="scale(0.9962640099626402)" xlink:href="#CMSY10-1"/>
     <use transform="translate(44.27848996439135 0.0)scale(0.9962640099626402)" xlink:href="#CMSY10-1"/>
     <use transform="translate(88.5569799287827 0.0)scale(0.9962640099626402)" xlink:href="#CMSY10-1"/>
    </g>
   </g>
   <g id="text_9">
    <!-- $x_{N-1}$ -->
    <defs>
     <path d="
M65.9062 23
C67.5938 23 69.4062 23 69.4062 25
C69.4062 27 67.5938 27 65.9062 27
L11.7969 27
C10.0938 27 8.29688 27 8.29688 25
C8.29688 23 10.0938 23 11.7969 23
z
" id="CMSY10-0"/>
    </defs>
    <g transform="translate(125.775 39.110650466)scale(0.12 -0.12)">
     <use transform="translate(0.0 14.943914544092468)scale(0.9962640099626402)" xlink:href="#CMMI12-120"/>
     <use transform="translate(55.43405953261208 0.0)scale(0.6973817666173724)" xlink:href="#CMMI12-78"/>
     <use transform="translate(117.39903280179796 0.0)scale(0.6973817666173724)" xlink:href="#CMSY10-0"/>
     <use transform="translate(171.6400260497743 0.0)scale(0.6973817666173724)" xlink:href="#CMR17-49"/>
    </g>
   </g>
   <g id="text_10">
    <!-- $h$ -->
    <defs>
     <path d="
M28.0938 66.5156
C28.2031 66.9219 28.4062 67.5156 28.4062 68
C28.4062 69 27.4062 69 27.2031 69
C27.0938 69 22.2031 68.5312 21.7031 68.3906
C20 68.3906 18.5 68.0938 16.7031 68.0938
C14.2031 67.8906 13.5 67.7969 13.5 66
C13.5 65 14.2969 65 15.7031 65
C20.5938 65 20.7031 64.0938 20.7031 63.0938
C20.7031 62.5156 20.5 61.7188 20.4062 61.4219
L5.90625 3.875
C5.5 2.375 5.5 2.1875 5.5 1.57812
C5.5 -0.59375 7.20312 -1 8.20312 -1
C9.90625 -1 11.2031 0.296875 11.7031 1.39062
L16.2031 19.4531
C16.7031 21.6562 17.2969 23.75 17.7969 25.9375
C18.9062 30.1406 18.9062 30.2344 20.7969 33.125
C22.7031 36.0156 27.2031 42.0156 34.9062 42.0156
C38.9062 42.0156 40.2969 39.0156 40.2969 35.0312
C40.2969 29.4375 36.4062 18.5625 34.2031 12.5781
C33.2969 10.1719 32.7969 8.875 32.7969 7.07812
C32.7969 2.59375 35.9062 -1 40.7031 -1
C50 -1 53.5 13.6719 53.5 14.2656
C53.5 14.7656 53.0938 15.1719 52.5 15.1719
C51.5938 15.1719 51.5 14.875 51 13.1719
C48.7031 5.1875 45 1 41 1
C40 1 38.4062 1 38.4062 4.20312
C38.4062 6.8125 39.5938 10 40 11.0938
C41.7969 15.9062 46.2969 27.7031 46.2969 33.5156
C46.2969 39.5 42.7969 44 35.2031 44
C29.5 44 24.5 41.3125 20.4062 36.125
z
" id="CMMI12-104"/>
    </defs>
    <g transform="translate(28.125 16.070650466)scale(0.12 -0.12)">
     <use transform="scale(0.9962640099626402)" xlink:href="#CMMI12-104"/>
    </g>
   </g>
  </g>
 </g>
 <defs>
  <clipPath id="p0f5613ffbf">
   <rect height="57.6" width="167.4" x="7.2" y="10.310650466"/>
  </clipPath>
 </defs>
</svg>
