<?xml version="1.0" encoding="utf-8" standalone="no"?>
<!DOCTYPE svg PUBLIC "-//W3C//DTD SVG 1.1//EN"
  "http://www.w3.org/Graphics/SVG/1.1/DTD/svg11.dtd">
<!-- Created with matplotlib (http://matplotlib.org/) -->
<svg height="187pt" version="1.1" viewBox="0 0 181 187" width="181pt" xmlns="http://www.w3.org/2000/svg" xmlns:xlink="http://www.w3.org/1999/xlink">
 <defs>
  <style type="text/css">
*{stroke-linecap:butt;stroke-linejoin:round;}
  </style>
 </defs>
 <g id="figure_1">
  <g id="patch_1">
   <path d="
M0 187.2
L181.8 187.2
L181.8 0
L0 0
z
" style="fill:#ffffff;"/>
  </g>
  <g id="axes_1">
   <g id="patch_2">
    <path clip-path="url(#p99abba242d)" d="
M174.6 155.314
L170.415 156.549
L170.415 155.317
L7.2 155.317
L7.2 155.312
L170.415 155.312
L170.415 154.08
z
" style="stroke:#000000;"/>
   </g>
   <g id="patch_3">
    <path clip-path="url(#p99abba242d)" d="
M49.05 12.1371
L51.1425 14.6057
L49.0709 14.6057
L49.0709 165.189
L49.0291 165.189
L49.0291 14.6057
L46.9575 14.6057
z
" style="stroke:#000000;"/>
   </g>
   <g id="line2d_1">
    <path clip-path="url(#p99abba242d)" d="
M59.5125 158.169
L61.4342 157.762
L63.3559 157.306
L65.2776 156.797
L67.1992 156.233
L69.1209 155.61
L71.0426 154.927
L72.9643 154.179
L74.886 153.364
L76.8077 152.48
L78.7293 151.523
L80.651 150.49
L82.5727 149.379
L84.4944 148.187
L86.4161 146.91
L88.3378 145.547
L90.2594 144.093
L92.1811 142.547
L94.1028 140.906
L96.0245 139.166
L97.9462 137.324
L99.8679 135.379
L101.79 133.326
L103.711 131.163
L105.633 128.888
L107.555 126.497
L109.476 123.987
L111.398 121.356
L113.32 118.6
L115.241 115.718
L117.163 112.705
L119.085 109.56
L121.006 106.279
L122.928 102.859
L124.85 99.2974
L126.771 95.5918
L128.693 91.7389
L130.615 87.7359
L132.536 83.5799
L134.458 79.2681
L136.38 74.7976
L138.302 70.1656
L140.223 65.3691
L142.145 60.4053
L144.067 55.2713
L145.988 49.9643
L147.91 44.4814
L149.832 38.8197
L151.753 32.9764
L153.675 26.9486" style="fill:none;stroke:#0000ff;stroke-linecap:square;stroke-width:1.25;"/>
   </g>
   <g id="line2d_2">
    <path clip-path="url(#p99abba242d)" d="
M101.363 161.985
L102.473 159.225
L103.583 156.466
L104.693 153.706
L105.804 150.947
L106.914 148.187
L108.024 145.428
L109.135 142.668
L110.245 139.909
L111.355 137.149
L112.466 134.39
L113.576 131.63
L114.686 128.871
L115.796 126.111
L116.907 123.351
L118.017 120.592
L119.127 117.832
L120.238 115.073
L121.348 112.313
L122.458 109.554
L123.569 106.794
L124.679 104.035
L125.789 101.275
L126.9 98.5157
L128.01 95.7561
L129.12 92.9966
L130.23 90.2371
L131.341 87.4775
L132.451 84.718
L133.561 81.9585
L134.672 79.1989
L135.782 76.4394
L136.892 73.6799
L138.003 70.9203
L139.113 68.1608
L140.223 65.4012
L141.334 62.6417
L142.444 59.8822
L143.554 57.1226
L144.664 54.3631
L145.775 51.6036
L146.885 48.844
L147.995 46.0845
L149.106 43.325
L150.216 40.5654
L151.326 37.8059
L152.437 35.0464
L153.547 32.2868
L154.657 29.5273
L155.768 26.7677" style="fill:none;stroke:#808080;stroke-linecap:square;stroke-width:0.75;"/>
   </g>
   <g id="line2d_3">
    <path clip-path="url(#p99abba242d)" d="
M78.9365 160.022
L80.0468 158.729
L81.1571 157.435
L82.2674 156.142
L83.3777 154.849
L84.488 153.556
L85.5983 152.262
L86.7086 150.969
L87.8189 149.676
L88.9292 148.383
L90.0395 147.089
L91.1498 145.796
L92.2601 144.503
L93.3705 143.21
L94.4808 141.916
L95.5911 140.623
L96.7014 139.33
L97.8117 138.037
L98.922 136.743
L100.032 135.45
L101.143 134.157
L102.253 132.864
L103.363 131.57
L104.474 130.277
L105.584 128.984
L106.694 127.691
L107.804 126.397
L108.915 125.104
L110.025 123.811
L111.135 122.518
L112.246 121.224
L113.356 119.931
L114.466 118.638
L115.577 117.345
L116.687 116.051
L117.797 114.758
L118.907 113.465
L120.018 112.172
L121.128 110.878
L122.238 109.585
L123.349 108.292
L124.459 106.999
L125.569 105.705
L126.68 104.412
L127.79 103.119
L128.9 101.826
L130.011 100.532
L131.121 99.239
L132.231 97.9458
L133.341 96.6525" style="fill:none;stroke:#808080;stroke-linecap:square;stroke-width:0.75;"/>
   </g>
   <g id="line2d_4">
    <path clip-path="url(#p99abba242d)" d="
M49.05 68.3731
L139.028 68.3731" style="fill:none;stroke:#808080;stroke-dasharray:6.000000,6.000000;stroke-dashoffset:0.0;"/>
   </g>
   <g id="line2d_5">
    <path clip-path="url(#p99abba242d)" d="
M139.028 68.3731
L139.028 155.314" style="fill:none;stroke:#808080;stroke-dasharray:6.000000,6.000000;stroke-dashoffset:0.0;"/>
   </g>
   <g id="line2d_6">
    <defs>
     <path d="
M0 1.5
C0.397805 1.5 0.77937 1.34195 1.06066 1.06066
C1.34195 0.77937 1.5 0.397805 1.5 0
C1.5 -0.397805 1.34195 -0.77937 1.06066 -1.06066
C0.77937 -1.34195 0.397805 -1.5 0 -1.5
C-0.397805 -1.5 -0.77937 -1.34195 -1.06066 -1.06066
C-1.34195 -0.77937 -1.5 -0.397805 -1.5 0
C-1.5 0.397805 -1.34195 0.77937 -1.06066 1.06066
C-0.77937 1.34195 -0.397805 1.5 0 1.5
z
" id="m8185dd89ac" style="stroke:#000000;stroke-width:0.5;"/>
    </defs>
    <g clip-path="url(#p99abba242d)">
     <use style="stroke:#000000;stroke-width:0.5;" x="139.0275" xlink:href="#m8185dd89ac" y="68.3730514286"/>
    </g>
   </g>
   <g id="line2d_7">
    <path clip-path="url(#p99abba242d)" d="
M139.028 157.783
L139.028 152.846" style="fill:none;stroke:#000000;stroke-linecap:square;"/>
   </g>
   <g id="line2d_8">
    <path clip-path="url(#p99abba242d)" d="
M44.865 68.3731
L53.235 68.3731" style="fill:none;stroke:#000000;stroke-linecap:square;"/>
   </g>
   <g id="line2d_9">
    <path clip-path="url(#p99abba242d)" d="
M49.05 130.774
L104.046 130.774" style="fill:none;stroke:#808080;stroke-dasharray:6.000000,6.000000;stroke-dashoffset:0.0;"/>
   </g>
   <g id="line2d_10">
    <path clip-path="url(#p99abba242d)" d="
M104.046 130.774
L104.046 155.314" style="fill:none;stroke:#808080;stroke-dasharray:6.000000,6.000000;stroke-dashoffset:0.0;"/>
   </g>
   <g id="line2d_11">
    <g clip-path="url(#p99abba242d)">
     <use style="stroke:#000000;stroke-width:0.5;" x="104.046472054" xlink:href="#m8185dd89ac" y="130.774436329"/>
    </g>
   </g>
   <g id="line2d_12">
    <path clip-path="url(#p99abba242d)" d="
M104.046 157.783
L104.046 152.846" style="fill:none;stroke:#000000;stroke-linecap:square;"/>
   </g>
   <g id="line2d_13">
    <path clip-path="url(#p99abba242d)" d="
M44.865 130.774
L53.235 130.774" style="fill:none;stroke:#000000;stroke-linecap:square;"/>
   </g>
   <g id="line2d_14">
    <path clip-path="url(#p99abba242d)" d="
M82.978 157.783
L82.978 152.846" style="fill:none;stroke:#000000;stroke-linecap:square;"/>
   </g>
   <g id="line2d_15">
    <defs>
     <path d="
M0 1.5
C0.397805 1.5 0.77937 1.34195 1.06066 1.06066
C1.34195 0.77937 1.5 0.397805 1.5 0
C1.5 -0.397805 1.34195 -0.77937 1.06066 -1.06066
C0.77937 -1.34195 0.397805 -1.5 0 -1.5
C-0.397805 -1.5 -0.77937 -1.34195 -1.06066 -1.06066
C-1.34195 -0.77937 -1.5 -0.397805 -1.5 0
C-1.5 0.397805 -1.34195 0.77937 -1.06066 1.06066
C-0.77937 1.34195 -0.397805 1.5 0 1.5
z
" id="m12639309c5" style="stroke:#000000;stroke-width:0.5;"/>
    </defs>
    <g clip-path="url(#p99abba242d)">
     <use style="fill:#ff0000;stroke:#000000;stroke-width:0.5;" x="69.975" xlink:href="#m12639309c5" y="155.314285714"/>
     <use style="fill:#ff0000;stroke:#000000;stroke-width:0.5;" x="69.975" xlink:href="#m12639309c5" y="155.314285714"/>
    </g>
   </g>
   <g id="matplotlib.axis_1"/>
   <g id="matplotlib.axis_2"/>
   <g id="text_1">
    <!-- $x$ -->
    <defs>
     <path d="
M7.8125 2.875
Q9.57812 1.51562 12.7969 1.51562
Q15.9219 1.51562 18.3125 4.51562
Q20.7031 7.51562 21.5781 11.0781
L26.125 28.8125
Q27.2031 33.6406 27.2031 35.4062
Q27.2031 37.8906 25.8125 39.75
Q24.4219 41.6094 21.9219 41.6094
Q18.75 41.6094 15.9688 39.625
Q13.1875 37.6406 11.2812 34.5938
Q9.375 31.5469 8.59375 28.4219
Q8.40625 27.7812 7.8125 27.7812
L6.59375 27.7812
Q5.8125 27.7812 5.8125 28.7188
L5.8125 29
Q6.78125 32.7188 9.125 36.25
Q11.4688 39.7969 14.8594 41.9844
Q18.2656 44.1875 22.125 44.1875
Q25.7812 44.1875 28.7344 42.2344
Q31.6875 40.2812 32.9062 36.9219
Q34.625 39.9844 37.2812 42.0781
Q39.9375 44.1875 43.1094 44.1875
Q45.2656 44.1875 47.5 43.4219
Q49.75 42.6719 51.1719 41.1094
Q52.5938 39.5469 52.5938 37.2031
Q52.5938 34.6719 50.9531 32.8281
Q49.3125 31 46.7812 31
Q45.1719 31 44.0938 32.0312
Q43.0156 33.0625 43.0156 34.625
Q43.0156 36.7188 44.4531 38.2969
Q45.9062 39.8906 47.9062 40.1875
Q46.0938 41.6094 42.9219 41.6094
Q39.7031 41.6094 37.3281 38.625
Q34.9688 35.6406 33.9844 31.9844
L29.5938 14.3125
Q28.5156 10.2969 28.5156 7.71875
Q28.5156 5.17188 29.9531 3.34375
Q31.3906 1.51562 33.7969 1.51562
Q38.4844 1.51562 42.1562 5.64062
Q45.8438 9.76562 47.0156 14.7031
Q47.2188 15.2812 47.7969 15.2812
L49.0312 15.2812
Q49.4219 15.2812 49.6562 15.0156
Q49.9062 14.75 49.9062 14.4062
Q49.9062 14.3125 49.8125 14.1094
Q48.3906 8.15625 43.8438 3.51562
Q39.3125 -1.125 33.5938 -1.125
Q29.9375 -1.125 26.9844 0.84375
Q24.0312 2.82812 22.7969 6.20312
Q21.2344 3.26562 18.4688 1.0625
Q15.7188 -1.125 12.5938 -1.125
Q10.4531 -1.125 8.17188 -0.359375
Q5.90625 0.390625 4.48438 1.95312
Q3.07812 3.51562 3.07812 5.90625
Q3.07812 8.25 4.70312 10.1719
Q6.34375 12.1094 8.79688 12.1094
Q10.4531 12.1094 11.5781 11.1094
Q12.7031 10.1094 12.7031 8.5
Q12.7031 6.39062 11.2969 4.82812
Q9.90625 3.26562 7.8125 2.875" id="Cmmi10-78"/>
    </defs>
    <g transform="translate(164.1375 172.594285714)scale(0.12 -0.12)">
     <use transform="translate(0.0 0.8125)" xlink:href="#Cmmi10-78"/>
    </g>
   </g>
   <g id="text_2">
    <!-- $y$ -->
    <defs>
     <path d="
M8.40625 -14.3125
Q10.5 -17.9219 15.7188 -17.9219
Q20.4531 -17.9219 23.9219 -14.5938
Q27.3906 -11.2812 29.5156 -6.5625
Q31.6406 -1.85938 32.8125 3.07812
Q28.375 -1.125 23.1875 -1.125
Q19.2344 -1.125 16.4531 0.234375
Q13.6719 1.60938 12.125 4.3125
Q10.5938 7.03125 10.5938 10.8906
Q10.5938 14.1562 11.4688 17.5938
Q12.3594 21.0469 13.9375 25.2656
Q15.5312 29.5 16.7031 32.625
Q18.0156 36.2812 18.0156 38.625
Q18.0156 41.6094 15.8281 41.6094
Q11.8594 41.6094 9.29688 37.5312
Q6.73438 33.4531 5.51562 28.4219
Q5.32812 27.7812 4.6875 27.7812
L3.51562 27.7812
Q2.6875 27.7812 2.6875 28.7188
L2.6875 29
Q4.29688 34.9688 7.60938 39.5781
Q10.9375 44.1875 16.0156 44.1875
Q19.5781 44.1875 22.0469 41.8438
Q24.5156 39.5 24.5156 35.8906
Q24.5156 34.0312 23.6875 31.9844
Q23.25 30.7656 21.6875 26.6562
Q20.125 22.5625 19.2812 19.875
Q18.4531 17.1875 17.9219 14.5938
Q17.3906 12.0156 17.3906 9.42188
Q17.3906 6.10938 18.7969 3.8125
Q20.2188 1.51562 23.2969 1.51562
Q29.5 1.51562 34.4219 9.07812
L42 39.8906
Q42.3281 41.2188 43.5469 42.1562
Q44.7812 43.1094 46.1875 43.1094
Q47.4062 43.1094 48.3125 42.3281
Q49.2188 41.5469 49.2188 40.2812
Q49.2188 39.7031 49.125 39.5
L39.2031 -0.296875
Q37.8906 -5.42188 34.375 -10.1094
Q30.8594 -14.7969 25.9062 -17.6562
Q20.9531 -20.5156 15.5781 -20.5156
Q12.9844 -20.5156 10.4375 -19.5
Q7.90625 -18.5 6.34375 -16.5
Q4.78125 -14.5 4.78125 -11.8125
Q4.78125 -9.07812 6.39062 -7.07812
Q8.01562 -5.07812 10.6875 -5.07812
Q12.3125 -5.07812 13.4062 -6.07812
Q14.5 -7.07812 14.5 -8.6875
Q14.5 -10.9844 12.7812 -12.6875
Q11.0781 -14.4062 8.79688 -14.4062
Q8.6875 -14.3594 8.59375 -14.3281
Q8.5 -14.3125 8.40625 -14.3125" id="Cmmi10-79"/>
    </defs>
    <g transform="translate(38.5875 26.9485714286)scale(0.12 -0.12)">
     <use transform="translate(0.0 0.8125)" xlink:href="#Cmmi10-79"/>
    </g>
   </g>
   <g id="text_3">
    <!-- $f(x^{(1)})$ -->
    <defs>
     <path d="
M9.71875 -16.5
Q11.5781 -17.9219 14.2031 -17.9219
Q17.7812 -17.9219 20.0156 -10.0156
Q20.9531 -6.20312 25.0938 15.0938
L29.6875 39.5938
L21.0938 39.5938
Q20.125 39.5938 20.125 40.9219
Q20.5156 43.1094 21.3906 43.1094
L30.3281 43.1094
L31.5 49.6094
Q32.0781 52.6406 32.5625 54.8125
Q33.0625 56.9844 33.625 58.8281
Q34.1875 60.6875 35.2969 62.9844
Q37.0156 66.2656 39.9219 68.3906
Q42.8281 70.5156 46.1875 70.5156
Q48.3906 70.5156 50.4688 69.7031
Q52.5469 68.8906 53.8594 67.2812
Q55.1719 65.6719 55.1719 63.4844
Q55.1719 60.9375 53.4844 59.0469
Q51.8125 57.1719 49.4219 57.1719
Q47.7969 57.1719 46.6562 58.1719
Q45.5156 59.1875 45.5156 60.7969
Q45.5156 62.9844 47 64.625
Q48.4844 66.2656 50.6875 66.5
Q48.8281 67.9219 46.0938 67.9219
Q44.5781 67.9219 43.2344 66.5
Q41.8906 65.0938 41.5 63.4844
Q40.875 60.9375 38.7188 49.7031
L37.5 43.1094
L47.7969 43.1094
Q48.7812 43.1094 48.7812 41.7969
Q48.7344 41.5469 48.5781 40.9375
Q48.4375 40.3281 48.1719 39.9531
Q47.9062 39.5938 47.5156 39.5938
L36.8125 39.5938
L32.1719 15.1875
Q31.2969 9.85938 30.1406 4.35938
Q29 -1.125 26.9219 -6.90625
Q24.8594 -12.7031 21.625 -16.6094
Q18.4062 -20.5156 14.0156 -20.5156
Q10.6406 -20.5156 7.98438 -18.5781
Q5.32812 -16.6562 5.32812 -13.4844
Q5.32812 -10.9375 6.95312 -9.04688
Q8.59375 -7.17188 11.0781 -7.17188
Q12.75 -7.17188 13.8594 -8.17188
Q14.9844 -9.1875 14.9844 -10.7969
Q14.9844 -12.9375 13.3906 -14.7188
Q11.8125 -16.5 9.71875 -16.5" id="Cmmi10-66"/>
     <path d="
M9.28125 0
L9.28125 3.51562
Q21.7812 3.51562 21.7812 6.6875
L21.7812 59.1875
Q16.6094 56.6875 8.6875 56.6875
L8.6875 60.2031
Q20.9531 60.2031 27.2031 66.6094
L28.6094 66.6094
Q28.9531 66.6094 29.2656 66.3281
Q29.5938 66.0625 29.5938 65.7188
L29.5938 6.6875
Q29.5938 3.51562 42.0938 3.51562
L42.0938 0
z
" id="Cmr10-31"/>
     <path d="
M31 -24.8125
Q25.4375 -20.4062 21.4062 -14.7188
Q17.3906 -9.03125 14.8125 -2.57812
Q12.25 3.85938 10.9844 10.8906
Q9.71875 17.9219 9.71875 25
Q9.71875 32.1719 10.9844 39.2031
Q12.25 46.2344 14.8594 52.7344
Q17.4844 59.2344 21.5312 64.8906
Q25.5938 70.5625 31 74.8125
Q31 75 31.5 75
L32.4219 75
Q32.7188 75 32.9531 74.7344
Q33.2031 74.4688 33.2031 74.125
Q33.2031 73.6875 33.0156 73.4844
Q28.125 68.7031 24.875 63.2344
Q21.625 57.7656 19.6406 51.5781
Q17.6719 45.4062 16.7969 38.7812
Q15.9219 32.1719 15.9219 25
Q15.9219 -6.78125 32.9062 -23.2969
Q33.2031 -23.5781 33.2031 -24.125
Q33.2031 -24.3594 32.9375 -24.6719
Q32.6719 -25 32.4219 -25
L31.5 -25
Q31 -25 31 -24.8125" id="Cmr10-28"/>
     <path d="
M6.5 -25
Q5.60938 -25 5.60938 -24.125
Q5.60938 -23.6875 5.8125 -23.4844
Q22.9062 -6.78125 22.9062 25
Q22.9062 56.7812 6 73.2969
Q5.60938 73.5312 5.60938 74.125
Q5.60938 74.4688 5.875 74.7344
Q6.15625 75 6.5 75
L7.42188 75
Q7.71875 75 7.90625 74.8125
Q15.0938 69.1406 19.875 61.0312
Q24.6562 52.9375 26.875 43.75
Q29.1094 34.5781 29.1094 25
Q29.1094 17.9219 27.9062 11.0625
Q26.7031 4.20312 24.0938 -2.45312
Q21.4844 -9.125 17.4844 -14.7656
Q13.4844 -20.4062 7.90625 -24.8125
Q7.71875 -25 7.42188 -25
z
" id="Cmr10-29"/>
    </defs>
    <g transform="translate(7.2 68.8667657143)scale(0.12 -0.12)">
     <use transform="translate(0.0 0.984375)" xlink:href="#Cmmi10-66"/>
     <use transform="translate(48.876953125 0.984375)" xlink:href="#Cmr10-28"/>
     <use transform="translate(87.6953125 0.984375)" xlink:href="#Cmmi10-78"/>
     <use transform="translate(144.775390625 43.5)scale(0.7)" xlink:href="#Cmr10-28"/>
     <use transform="translate(171.9482421875 43.5)scale(0.7)" xlink:href="#Cmr10-31"/>
     <use transform="translate(206.9482421875 43.5)scale(0.7)" xlink:href="#Cmr10-29"/>
     <use transform="translate(251.12734375 0.984375)" xlink:href="#Cmr10-29"/>
    </g>
   </g>
   <g id="text_4">
    <!-- $x^{(1)}$ -->
    <g transform="translate(128.565 172.594285714)scale(0.12 -0.12)">
     <use transform="translate(0.0 0.984375)" xlink:href="#Cmmi10-78"/>
     <use transform="translate(57.080078125 43.5)scale(0.7)" xlink:href="#Cmr10-28"/>
     <use transform="translate(84.2529296875 43.5)scale(0.7)" xlink:href="#Cmr10-31"/>
     <use transform="translate(119.2529296875 43.5)scale(0.7)" xlink:href="#Cmr10-29"/>
    </g>
   </g>
   <g id="text_5">
    <!-- $f(x^{(2)})$ -->
    <defs>
     <path d="
M4.98438 0
L4.98438 2.6875
Q4.98438 2.9375 5.17188 3.21875
L20.7031 20.4062
Q24.2188 24.2188 26.4062 26.7969
Q28.6094 29.3906 30.75 32.7656
Q32.9062 36.1406 34.1562 39.625
Q35.4062 43.1094 35.4062 47.0156
Q35.4062 51.125 33.8906 54.8594
Q32.375 58.5938 29.375 60.8438
Q26.375 63.0938 22.125 63.0938
Q17.7812 63.0938 14.3125 60.4688
Q10.8438 57.8594 9.42188 53.7188
Q9.8125 53.8125 10.5 53.8125
Q12.75 53.8125 14.3281 52.2969
Q15.9219 50.7812 15.9219 48.3906
Q15.9219 46.0938 14.3281 44.5
Q12.75 42.9219 10.5 42.9219
Q8.15625 42.9219 6.5625 44.5469
Q4.98438 46.1875 4.98438 48.3906
Q4.98438 52.1562 6.39062 55.4375
Q7.8125 58.7344 10.4688 61.2969
Q13.1406 63.875 16.4844 65.2344
Q19.8281 66.6094 23.5781 66.6094
Q29.2969 66.6094 34.2188 64.1875
Q39.1562 61.7656 42.0312 57.3438
Q44.9219 52.9375 44.9219 47.0156
Q44.9219 42.6719 43.0156 38.7656
Q41.1094 34.8594 38.125 31.6562
Q35.1562 28.4688 30.5156 24.4062
Q25.875 20.3594 24.4219 19
L13.0938 8.10938
L22.7031 8.10938
Q29.7812 8.10938 34.5469 8.21875
Q39.3125 8.34375 39.5938 8.59375
Q40.7656 9.85938 42 17.8281
L44.9219 17.8281
L42.0938 0
z
" id="Cmr10-32"/>
    </defs>
    <g transform="translate(7.2 131.268150615)scale(0.12 -0.12)">
     <use transform="translate(0.0 0.984375)" xlink:href="#Cmmi10-66"/>
     <use transform="translate(48.876953125 0.984375)" xlink:href="#Cmr10-28"/>
     <use transform="translate(87.6953125 0.984375)" xlink:href="#Cmmi10-78"/>
     <use transform="translate(144.775390625 43.5)scale(0.7)" xlink:href="#Cmr10-28"/>
     <use transform="translate(171.9482421875 43.5)scale(0.7)" xlink:href="#Cmr10-32"/>
     <use transform="translate(206.9482421875 43.5)scale(0.7)" xlink:href="#Cmr10-29"/>
     <use transform="translate(251.12734375 0.984375)" xlink:href="#Cmr10-29"/>
    </g>
   </g>
   <g id="text_6">
    <!-- $x^{(2)}$ -->
    <g transform="translate(93.5839720541 172.594285714)scale(0.12 -0.12)">
     <use transform="translate(0.0 0.984375)" xlink:href="#Cmmi10-78"/>
     <use transform="translate(57.080078125 43.5)scale(0.7)" xlink:href="#Cmr10-28"/>
     <use transform="translate(84.2529296875 43.5)scale(0.7)" xlink:href="#Cmr10-32"/>
     <use transform="translate(119.2529296875 43.5)scale(0.7)" xlink:href="#Cmr10-29"/>
    </g>
   </g>
   <g id="text_7">
    <!-- $x^{(3)}$ -->
    <defs>
     <path d="
M9.51562 7.71875
Q11.8594 4.29688 15.8125 2.64062
Q19.7812 0.984375 24.3125 0.984375
Q30.125 0.984375 32.5625 5.9375
Q35.0156 10.8906 35.0156 17.1875
Q35.0156 20.0156 34.5 22.8438
Q33.9844 25.6875 32.7656 28.125
Q31.5469 30.5625 29.4219 32.0312
Q27.2969 33.5 24.2188 33.5
L17.5781 33.5
Q16.7031 33.5 16.7031 34.4219
L16.7031 35.2969
Q16.7031 36.0781 17.5781 36.0781
L23.0938 36.5312
Q26.6094 36.5312 28.9219 39.1562
Q31.25 41.7969 32.3281 45.5781
Q33.4062 49.3594 33.4062 52.7812
Q33.4062 57.5625 31.1562 60.6406
Q28.9062 63.7188 24.3125 63.7188
Q20.5156 63.7188 17.0469 62.2812
Q13.5781 60.8438 11.5312 57.9062
Q11.7188 57.9531 11.8594 57.9844
Q12.0156 58.0156 12.2031 58.0156
Q14.4531 58.0156 15.9688 56.4531
Q17.4844 54.8906 17.4844 52.6875
Q17.4844 50.5312 15.9688 48.9688
Q14.4531 47.4062 12.2031 47.4062
Q10.0156 47.4062 8.45312 48.9688
Q6.89062 50.5312 6.89062 52.6875
Q6.89062 56.9844 9.46875 60.1562
Q12.0625 63.3281 16.1406 64.9688
Q20.2188 66.6094 24.3125 66.6094
Q27.3438 66.6094 30.7031 65.7031
Q34.0781 64.7969 36.8125 63.1094
Q39.5469 61.4219 41.2812 58.7812
Q43.0156 56.1562 43.0156 52.7812
Q43.0156 48.5781 41.1406 45.0156
Q39.2656 41.4531 35.9844 38.8594
Q32.7188 36.2812 28.8125 35.0156
Q33.1562 34.1875 37.0625 31.7344
Q40.9688 29.2969 43.3281 25.4844
Q45.7031 21.6875 45.7031 17.2812
Q45.7031 11.7656 42.6719 7.29688
Q39.6562 2.82812 34.7188 0.3125
Q29.7812 -2.20312 24.3125 -2.20312
Q19.625 -2.20312 14.9062 -0.40625
Q10.2031 1.375 7.20312 4.9375
Q4.20312 8.5 4.20312 13.4844
Q4.20312 15.9688 5.85938 17.625
Q7.51562 19.2812 10.0156 19.2812
Q11.625 19.2812 12.9688 18.5312
Q14.3125 17.7812 15.0625 16.4062
Q15.8281 15.0469 15.8281 13.4844
Q15.8281 11.0312 14.1094 9.375
Q12.4062 7.71875 10.0156 7.71875
z
" id="Cmr10-33"/>
    </defs>
    <g transform="translate(72.5155460538 172.594285714)scale(0.12 -0.12)">
     <use transform="translate(0.0 0.984375)" xlink:href="#Cmmi10-78"/>
     <use transform="translate(57.080078125 43.5)scale(0.7)" xlink:href="#Cmr10-28"/>
     <use transform="translate(84.2529296875 43.5)scale(0.7)" xlink:href="#Cmr10-33"/>
     <use transform="translate(119.2529296875 43.5)scale(0.7)" xlink:href="#Cmr10-29"/>
    </g>
   </g>
   <g id="text_8">
    <!-- $x\!^{*}$ -->
    <defs>
     <path d="
M9.42188 12.7031
Q8.29688 12.7031 7.39062 13.6406
Q6.5 14.5938 6.5 15.7188
Q6.5 17.4375 7.90625 18.1094
L22.3125 25
L7.90625 31.7812
Q6.5 32.375 6.5 34.1875
Q6.5 35.2969 7.39062 36.25
Q8.29688 37.2031 9.42188 37.2031
Q10.1562 37.2031 10.7969 36.7188
L23.5781 27.3906
L22.125 43.7031
Q22.125 44.9219 22.9531 45.7031
Q23.7812 46.4844 25 46.4844
Q26.1719 46.4844 26.9688 45.75
Q27.7812 45.0156 27.7812 43.8906
L27.7812 43.7031
L26.3125 27.3906
L39.1094 36.7188
Q39.75 37.2031 40.4844 37.2031
Q41.7031 37.2031 42.5469 36.25
Q43.4062 35.2969 43.4062 34.1875
Q43.4062 32.375 42 31.7812
L27.5938 25
L42 18.1094
Q43.4062 17.4375 43.4062 15.7188
Q43.4062 14.5938 42.5469 13.6406
Q41.7031 12.7031 40.4844 12.7031
Q39.75 12.7031 39.1094 13.1875
L26.3125 22.5156
L27.7812 6.29688
L27.7812 6
Q27.7812 4.89062 26.9219 4.15625
Q26.0781 3.42188 25 3.42188
Q23.8281 3.42188 22.9688 4.21875
Q22.125 5.03125 22.125 6.20312
L23.5781 22.5156
L10.7969 13.1875
Q10.1562 12.7031 9.42188 12.7031" id="Cmsy10-a4"/>
    </defs>
    <g transform="translate(59.5125 152.845714286)scale(0.12 -0.12)">
     <use transform="translate(0.0 0.9453125)" xlink:href="#Cmmi10-78"/>
     <use transform="translate(34.25390625 43.4609375)scale(0.7)" xlink:href="#Cmsy10-a4"/>
    </g>
   </g>
  </g>
 </g>
 <defs>
  <clipPath id="p99abba242d">
   <rect height="172.8" width="167.4" x="7.2" y="7.2"/>
  </clipPath>
 </defs>
</svg>
