<?xml version="1.0" encoding="utf-8" standalone="no"?>
<!DOCTYPE svg PUBLIC "-//W3C//DTD SVG 1.1//EN"
  "http://www.w3.org/Graphics/SVG/1.1/DTD/svg11.dtd">
<!-- Created with matplotlib (http://matplotlib.org/) -->
<svg height="179pt" version="1.1" viewBox="0 0 189 179" width="189pt" xmlns="http://www.w3.org/2000/svg" xmlns:xlink="http://www.w3.org/1999/xlink">
 <defs>
  <style type="text/css">
*{stroke-linecap:butt;stroke-linejoin:round;}
  </style>
 </defs>
 <g id="figure_1">
  <g id="patch_1">
   <path d="
M0 179.113
L189.116 179.113
L189.116 0
L0 0
z
" style="fill:#ffffff;"/>
  </g>
  <g id="axes_1">
   <g id="patch_2">
    <path d="
M32.0106 156.771
L171.511 156.771
L171.511 12.771
L32.0106 12.771
z
" style="fill:#ffffff;"/>
   </g>
   <g id="patch_3">
    <path clip-path="url(#pca80d0e1e4)" d="
M66.8856 70.0656
L68.6294 75.4656
L67.2344 75.4656
L67.2344 156.771
L66.5369 156.771
L66.5369 75.4656
L65.1419 75.4656
z
" style="fill:#ff0000;stroke:#ff0000;stroke-width:0.1;"/>
   </g>
   <g id="patch_4">
    <path clip-path="url(#pca80d0e1e4)" d="
M116.006 70.0656
L110.775 71.8656
L110.775 70.4256
L66.8856 70.4256
L66.8856 69.7056
L110.775 69.7056
L110.775 68.2656
z
" style="fill:#ff0000;stroke:#ff0000;stroke-width:0.1;"/>
   </g>
   <g id="patch_5">
    <path clip-path="url(#pca80d0e1e4)" d="
M116.006 56.0917
L117.75 61.4917
L116.355 61.4917
L116.355 70.0656
L115.658 70.0656
L115.658 61.4917
L114.263 61.4917
z
" style="fill:#ff0000;stroke:#ff0000;stroke-width:0.1;"/>
   </g>
   <g id="line2d_1">
    <path clip-path="url(#pca80d0e1e4)" d="
M32.0106 82.0657
L34.8576 81.0246
L37.7045 79.9941
L40.5514 78.9745
L43.3984 77.9658
L46.2453 76.968
L49.0923 75.9811
L51.9392 75.0053
L54.7861 74.0406
L57.6331 73.087
L60.48 72.1447
L63.327 71.2136
L66.1739 70.2938
L69.0208 69.3854
L71.8678 68.4885
L74.7147 67.603
L77.5617 66.7292
L80.4086 65.8669
L83.2555 65.0163
L86.1025 64.1775
L88.9494 63.3505
L91.7963 62.5353
L94.6433 61.7321
L97.4902 60.9409
L100.337 60.1617
L103.184 59.3946
L106.031 58.6397
L108.878 57.8971
L111.725 57.1667
L114.572 56.4488
L117.419 55.7432
L120.266 55.0502
L123.113 54.3697
L125.96 53.7019
L128.807 53.0467
L131.653 52.4043
L134.5 51.7747
L137.347 51.1581
L140.194 50.5543
L143.041 49.9636
L145.888 49.386
L148.735 48.8216
L151.582 48.2704
L154.429 47.7325
L157.276 47.208
L160.123 46.6969
L162.97 46.1993
L165.817 45.7152
L168.664 45.2449
L171.511 44.7882" style="fill:none;stroke:#0000ff;stroke-linecap:square;"/>
   </g>
   <g id="line2d_2">
    <path clip-path="url(#pca80d0e1e4)" d="
M32.0106 156.771
L34.8576 153.832
L37.7045 150.893
L40.5514 147.955
L43.3984 145.016
L46.2453 142.077
L49.0923 139.138
L51.9392 136.2
L54.7861 133.261
L57.6331 130.322
L60.48 127.383
L63.327 124.445
L66.1739 121.506
L69.0208 118.567
L71.8678 115.628
L74.7147 112.689
L77.5617 109.751
L80.4086 106.812
L83.2555 103.873
L86.1025 100.934
L88.9494 97.9955
L91.7963 95.0568
L94.6433 92.118
L97.4902 89.1792
L100.337 86.2404
L103.184 83.3017
L106.031 80.3629
L108.878 77.4241
L111.725 74.4853
L114.572 71.5466
L117.419 68.6078
L120.266 65.669
L123.113 62.7302
L125.96 59.7915
L128.807 56.8527
L131.653 53.9139
L134.5 50.9751
L137.347 48.0363
L140.194 45.0976
L143.041 42.1588
L145.888 39.22
L148.735 36.2812
L151.582 33.3425
L154.429 30.4037
L157.276 27.4649
L160.123 24.5261
L162.97 21.5874
L165.817 18.6486
L168.664 15.7098
L171.511 12.771" style="fill:none;stroke:#000000;stroke-dasharray:6.000000,6.000000;stroke-dashoffset:0.0;"/>
   </g>
   <g id="line2d_3">
    <defs>
     <path d="
M0 2
C0.530406 2 1.03916 1.78927 1.41421 1.41421
C1.78927 1.03916 2 0.530406 2 0
C2 -0.530406 1.78927 -1.03916 1.41421 -1.41421
C1.03916 -1.78927 0.530406 -2 0 -2
C-0.530406 -2 -1.03916 -1.78927 -1.41421 -1.41421
C-1.78927 -1.03916 -2 -0.530406 -2 0
C-2 0.530406 -1.78927 1.03916 -1.41421 1.41421
C-1.03916 1.78927 -0.530406 2 0 2
z
" id="mc33cb07b80" style="stroke:#000000;stroke-width:0.5;"/>
    </defs>
    <g clip-path="url(#pca80d0e1e4)">
     <use style="fill:#ff0000;stroke:#000000;stroke-width:0.5;" x="133.516413917" xlink:href="#mc33cb07b80" y="51.9908808203"/>
    </g>
   </g>
   <g id="line2d_4">
    <defs>
     <path d="
M0 1.5
C0.397805 1.5 0.77937 1.34195 1.06066 1.06066
C1.34195 0.77937 1.5 0.397805 1.5 0
C1.5 -0.397805 1.34195 -0.77937 1.06066 -1.06066
C0.77937 -1.34195 0.397805 -1.5 0 -1.5
C-0.397805 -1.5 -0.77937 -1.34195 -1.06066 -1.06066
C-1.34195 -0.77937 -1.5 -0.397805 -1.5 0
C-1.5 0.397805 -1.34195 0.77937 -1.06066 1.06066
C-0.77937 1.34195 -0.397805 1.5 0 1.5
z
" id="m8185dd89ac" style="stroke:#000000;stroke-width:0.5;"/>
    </defs>
    <g clip-path="url(#pca80d0e1e4)">
     <use style="stroke:#000000;stroke-width:0.5;" x="66.885632005" xlink:href="#m8185dd89ac" y="70.0656445281"/>
    </g>
   </g>
   <g id="line2d_5">
    <g clip-path="url(#pca80d0e1e4)">
     <use style="stroke:#000000;stroke-width:0.5;" x="116.006486575" xlink:href="#m8185dd89ac" y="56.0916630474"/>
    </g>
   </g>
   <g id="matplotlib.axis_1">
    <g id="xtick_1">
     <g id="line2d_6">
      <defs>
       <path d="
M0 0
L0 -4" id="mc7db9fdffb" style="stroke:#000000;stroke-width:0.5;"/>
      </defs>
      <g>
       <use style="stroke:#000000;stroke-width:0.5;" x="32.010632005" xlink:href="#mc7db9fdffb" y="156.771042794"/>
      </g>
     </g>
     <g id="line2d_7">
      <defs>
       <path d="
M0 0
L0 4" id="m5a7d422ac3" style="stroke:#000000;stroke-width:0.5;"/>
      </defs>
      <g>
       <use style="stroke:#000000;stroke-width:0.5;" x="32.010632005" xlink:href="#m5a7d422ac3" y="12.7710427936"/>
      </g>
     </g>
     <g id="text_1">
      <!-- $1.60$ -->
      <defs>
       <path d="
M18.4062 4.79688
C18.4062 7.6875 16 9.67188 13.5938 9.67188
C10.7031 9.67188 8.70312 7.28125 8.70312 4.89062
C8.70312 2 11.0938 0 13.5 0
C16.4062 0 18.4062 2.39062 18.4062 4.79688" id="CMMI12-58"/>
       <path d="
M26.5938 63.3125
C26.5938 65.4062 26.5 65.5 25.0938 65.5
C21.2031 61.1875 15.2969 59.7969 9.70312 59.7969
C9.40625 59.7969 8.90625 59.7969 8.79688 59.6094
C8.70312 59.3906 8.70312 59.1719 8.70312 57
C11.7969 57 17 57.5938 21 59.9844
L21 7.20312
C21 3.6875 20.7969 2.5 12.2031 2.5
L9.20312 2.5
L9.20312 0
C14 0 19 0 23.7969 0
C28.5938 0 33.5938 0 38.4062 0
L38.4062 2.5
L35.4062 2.5
C26.7969 2.5 26.5938 3.59375 26.5938 7.15625
z
" id="CMR17-49"/>
       <path d="
M10.5938 34
C10.5938 57.6562 21.7969 63 28.2969 63
C30.4062 63 35.5 62.6406 37.5 59
C35.9062 59 32.9062 59 32.9062 55.5156
C32.9062 52.8281 35.0938 51.9219 36.5 51.9219
C37.4062 51.9219 40.0938 52.3125 40.0938 55.625
C40.0938 61.7812 35.0938 65.2969 28.2031 65.2969
C16.2969 65.2969 3.79688 52.9688 3.79688 31
C3.79688 3.95312 15.0938 -2 23.0938 -2
C32.7969 -2 42 6.67188 42 20.0469
C42 32.5156 33.9062 41.5938 23.7031 41.5938
C17.5938 41.5938 13.0938 37.6094 10.5938 30.625
z

M23.0938 0.390625
C10.7969 0.390625 10.7969 18.75 10.7969 22.4375
C10.7969 29.625 14.2031 40 23.5 40
C25.2031 40 30.0938 40 33.4062 33.125
C35.2031 29.2188 35.2031 25.1406 35.2031 20.1406
C35.2031 14.75 35.2031 10.7812 33.0938 6.78125
C30.9062 2.67188 27.7031 0.390625 23.0938 0.390625" id="CMR17-54"/>
       <path d="
M42 31.6406
C42 37.75 41.9062 48.125 37.7031 56.1094
C34 63.1094 28.0938 65.5938 22.9062 65.5938
C18.0938 65.5938 12 63.4062 8.20312 56.2031
C4.20312 48.7188 3.79688 39.4375 3.79688 31.6406
C3.79688 25.9531 3.90625 17.2812 7 9.67188
C11.2969 -0.609375 19 -2 22.9062 -2
C27.5 -2 34.5 -0.109375 38.5938 9.375
C41.5938 16.2812 42 24.3594 42 31.6406
M22.9062 -0.40625
C16.5 -0.40625 12.7031 5.07812 11.2969 12.6875
C10.2031 18.5625 10.2031 27.1562 10.2031 32.75
C10.2031 40.4375 10.2031 46.8281 11.5 52.9219
C13.4062 61.3906 19 64 22.9062 64
C27 64 32.2969 61.2969 34.2031 53.125
C35.5 47.4375 35.5938 40.7344 35.5938 32.75
C35.5938 26.25 35.5938 18.2656 34.4062 12.375
C32.2969 1.48438 26.4062 -0.40625 22.9062 -0.40625" id="CMR17-48"/>
      </defs>
      <g transform="translate(21.6053160025 169.64169326)scale(0.12 -0.12)">
       <use transform="scale(0.9962640099626402)" xlink:href="#CMR17-49"/>
       <use transform="translate(45.69047711706103 0.0)scale(0.9962640099626402)" xlink:href="#CMMI12-58"/>
       <use transform="translate(72.78765420688046 0.0)scale(0.9962640099626402)" xlink:href="#CMR17-54"/>
       <use transform="translate(118.47813132394148 0.0)scale(0.9962640099626402)" xlink:href="#CMR17-48"/>
      </g>
     </g>
    </g>
    <g id="xtick_2">
     <g id="line2d_8">
      <g>
       <use style="stroke:#000000;stroke-width:0.5;" x="66.885632005" xlink:href="#mc7db9fdffb" y="156.771042794"/>
      </g>
     </g>
     <g id="line2d_9">
      <g>
       <use style="stroke:#000000;stroke-width:0.5;" x="66.885632005" xlink:href="#m5a7d422ac3" y="12.7710427936"/>
      </g>
     </g>
     <g id="text_2">
      <!-- $1.65$ -->
      <defs>
       <path d="
M11.4062 57.6875
C12.4062 57.2812 16.5 56 20.7031 56
C30 56 35.0938 61.0156 38 63.9219
C38 64.7344 38 65.25 37.4062 65.25
C37.2969 65.25 37.0938 65.25 36.2969 64.8281
C32.7969 63.3125 28.7031 62.0781 23.7031 62.0781
C20.7031 62.0781 16.2031 62.5 11.2969 64.7344
C10.2031 65.25 10 65.25 9.90625 65.25
C9.40625 65.25 9.29688 65.1406 9.29688 63.1562
L9.29688 34.2812
C9.29688 32.5 9.29688 32 10.2969 32
C10.7969 32 11 32.2031 11.5 32.9062
C14.7031 37.4844 19.0938 39.4062 24.0938 39.4062
C27.5938 39.4062 35.0938 37.2188 35.0938 20.1406
C35.0938 16.9531 35.0938 11.1719 32.0938 6.57812
C29.5938 2.48438 25.7031 0.390625 21.4062 0.390625
C14.7969 0.390625 8.09375 5 6.29688 12.7188
C6.70312 12.6094 7.5 12.4219 7.90625 12.4219
C9.20312 12.4219 11.7031 13.125 11.7031 16.2188
C11.7031 18.9062 9.79688 20 7.90625 20
C5.59375 20 4.09375 18.5938 4.09375 15.7969
C4.09375 7.09375 11 -2 21.5938 -2
C31.9062 -2 41.7031 6.875 41.7031 19.75
C41.7031 31.7188 33.9062 41 24.2031 41
C19.0938 41 14.7969 39.0938 11.4062 35.4531
z
" id="CMR17-53"/>
      </defs>
      <g transform="translate(56.4803160025 169.64169326)scale(0.12 -0.12)">
       <use transform="scale(0.9962640099626402)" xlink:href="#CMR17-49"/>
       <use transform="translate(45.69047711706103 0.0)scale(0.9962640099626402)" xlink:href="#CMMI12-58"/>
       <use transform="translate(72.78765420688046 0.0)scale(0.9962640099626402)" xlink:href="#CMR17-54"/>
       <use transform="translate(118.47813132394148 0.0)scale(0.9962640099626402)" xlink:href="#CMR17-53"/>
      </g>
     </g>
    </g>
    <g id="xtick_3">
     <g id="line2d_10">
      <g>
       <use style="stroke:#000000;stroke-width:0.5;" x="101.760632005" xlink:href="#mc7db9fdffb" y="156.771042794"/>
      </g>
     </g>
     <g id="line2d_11">
      <g>
       <use style="stroke:#000000;stroke-width:0.5;" x="101.760632005" xlink:href="#m5a7d422ac3" y="12.7710427936"/>
      </g>
     </g>
     <g id="text_3">
      <!-- $1.70$ -->
      <defs>
       <path d="
M45.0938 61.5781
L45.0938 63.7656
L21.5938 63.7656
C9.90625 63.7656 9.70312 65.0781 9.29688 67
L7.5 67
L4.59375 48.3438
L6.40625 48.3438
C6.70312 50.2344 7.40625 55.3125 8.59375 57.2031
C9.20312 58 16.5938 58 18.2969 58
L40.2969 58
L29.2031 41.5781
C21.7969 30.5312 16.7031 15.6094 16.7031 2.57812
C16.7031 1.39062 16.7031 -2 20.2969 -2
C23.9062 -2 23.9062 1.39062 23.9062 2.67188
L23.9062 7.26562
C23.9062 23.5625 26.7031 34.3125 31.2969 41.1875
z
" id="CMR17-55"/>
      </defs>
      <g transform="translate(91.3553160025 169.64169326)scale(0.12 -0.12)">
       <use transform="scale(0.9962640099626402)" xlink:href="#CMR17-49"/>
       <use transform="translate(45.69047711706103 0.0)scale(0.9962640099626402)" xlink:href="#CMMI12-58"/>
       <use transform="translate(72.78765420688046 0.0)scale(0.9962640099626402)" xlink:href="#CMR17-55"/>
       <use transform="translate(118.47813132394148 0.0)scale(0.9962640099626402)" xlink:href="#CMR17-48"/>
      </g>
     </g>
    </g>
    <g id="xtick_4">
     <g id="line2d_12">
      <g>
       <use style="stroke:#000000;stroke-width:0.5;" x="136.635632005" xlink:href="#mc7db9fdffb" y="156.771042794"/>
      </g>
     </g>
     <g id="line2d_13">
      <g>
       <use style="stroke:#000000;stroke-width:0.5;" x="136.635632005" xlink:href="#m5a7d422ac3" y="12.7710427936"/>
      </g>
     </g>
     <g id="text_4">
      <!-- $1.75$ -->
      <g transform="translate(126.230316002 169.64169326)scale(0.12 -0.12)">
       <use transform="scale(0.9962640099626402)" xlink:href="#CMR17-49"/>
       <use transform="translate(45.69047711706103 0.0)scale(0.9962640099626402)" xlink:href="#CMMI12-58"/>
       <use transform="translate(72.78765420688046 0.0)scale(0.9962640099626402)" xlink:href="#CMR17-55"/>
       <use transform="translate(118.47813132394148 0.0)scale(0.9962640099626402)" xlink:href="#CMR17-53"/>
      </g>
     </g>
    </g>
    <g id="xtick_5">
     <g id="line2d_14">
      <g>
       <use style="stroke:#000000;stroke-width:0.5;" x="171.510632005" xlink:href="#mc7db9fdffb" y="156.771042794"/>
      </g>
     </g>
     <g id="line2d_15">
      <g>
       <use style="stroke:#000000;stroke-width:0.5;" x="171.510632005" xlink:href="#m5a7d422ac3" y="12.7710427936"/>
      </g>
     </g>
     <g id="text_5">
      <!-- $1.80$ -->
      <defs>
       <path d="
M27.2031 35.375
C33.5 38.5625 39.9062 43.3281 39.9062 50.9844
C39.9062 60.0312 31.0938 65.2969 23 65.2969
C13.9062 65.2969 5.90625 58.7344 5.90625 49.6875
C5.90625 47.2031 6.5 42.9219 10.4062 39.1406
C11.4062 38.1562 15.5938 35.1719 18.2969 33.2812
C13.7969 30.9844 3.29688 25.5312 3.29688 14.5938
C3.29688 4.35938 13.0938 -2 22.7969 -2
C33.5 -2 42.5 5.65625 42.5 15.7969
C42.5 24.8438 36.4062 29.0312 32.4062 31.7031
z

M14.0938 44.125
C13.2969 44.625 9.29688 47.7031 9.29688 52.375
C9.29688 58.4375 15.5938 63 22.7969 63
C30.7031 63 36.5 57.4531 36.5 50.9844
C36.5 41.7344 26.0938 36.4688 25.5938 36.4688
C25.5 36.4688 25.4062 36.4688 24.5938 37.0781
z

M32.5 23.7344
C34 22.6406 38.7969 19.375 38.7969 13.2969
C38.7969 5.95312 31.4062 0.390625 23 0.390625
C13.9062 0.390625 7 6.84375 7 14.6875
C7 22.5469 13.0938 29.0938 20 32.1875
z
" id="CMR17-56"/>
      </defs>
      <g transform="translate(161.105316002 169.64169326)scale(0.12 -0.12)">
       <use transform="scale(0.9962640099626402)" xlink:href="#CMR17-49"/>
       <use transform="translate(45.69047711706103 0.0)scale(0.9962640099626402)" xlink:href="#CMMI12-58"/>
       <use transform="translate(72.78765420688046 0.0)scale(0.9962640099626402)" xlink:href="#CMR17-56"/>
       <use transform="translate(118.47813132394148 0.0)scale(0.9962640099626402)" xlink:href="#CMR17-48"/>
      </g>
     </g>
    </g>
   </g>
   <g id="matplotlib.axis_2">
    <g id="ytick_1">
     <g id="line2d_16">
      <defs>
       <path d="
M0 0
L4 0" id="md7965d1ba0" style="stroke:#000000;stroke-width:0.5;"/>
      </defs>
      <g>
       <use style="stroke:#000000;stroke-width:0.5;" x="32.010632005" xlink:href="#md7965d1ba0" y="156.771042794"/>
      </g>
     </g>
     <g id="line2d_17">
      <defs>
       <path d="
M0 0
L-4 0" id="md9a1c1a7cd" style="stroke:#000000;stroke-width:0.5;"/>
      </defs>
      <g>
       <use style="stroke:#000000;stroke-width:0.5;" x="171.510632005" xlink:href="#md9a1c1a7cd" y="156.771042794"/>
      </g>
     </g>
     <g id="text_6">
      <!-- $1.60$ -->
      <g transform="translate(7.2 160.070650466)scale(0.12 -0.12)">
       <use transform="scale(0.9962640099626402)" xlink:href="#CMR17-49"/>
       <use transform="translate(45.69047711706103 0.0)scale(0.9962640099626402)" xlink:href="#CMMI12-58"/>
       <use transform="translate(72.78765420688046 0.0)scale(0.9962640099626402)" xlink:href="#CMR17-54"/>
       <use transform="translate(118.47813132394148 0.0)scale(0.9962640099626402)" xlink:href="#CMR17-48"/>
      </g>
     </g>
    </g>
    <g id="ytick_2">
     <g id="line2d_18">
      <g>
       <use style="stroke:#000000;stroke-width:0.5;" x="32.010632005" xlink:href="#md7965d1ba0" y="120.771042794"/>
      </g>
     </g>
     <g id="line2d_19">
      <g>
       <use style="stroke:#000000;stroke-width:0.5;" x="171.510632005" xlink:href="#md9a1c1a7cd" y="120.771042794"/>
      </g>
     </g>
     <g id="text_7">
      <!-- $1.65$ -->
      <g transform="translate(7.2 124.070650466)scale(0.12 -0.12)">
       <use transform="scale(0.9962640099626402)" xlink:href="#CMR17-49"/>
       <use transform="translate(45.69047711706103 0.0)scale(0.9962640099626402)" xlink:href="#CMMI12-58"/>
       <use transform="translate(72.78765420688046 0.0)scale(0.9962640099626402)" xlink:href="#CMR17-54"/>
       <use transform="translate(118.47813132394148 0.0)scale(0.9962640099626402)" xlink:href="#CMR17-53"/>
      </g>
     </g>
    </g>
    <g id="ytick_3">
     <g id="line2d_20">
      <g>
       <use style="stroke:#000000;stroke-width:0.5;" x="32.010632005" xlink:href="#md7965d1ba0" y="84.7710427936"/>
      </g>
     </g>
     <g id="line2d_21">
      <g>
       <use style="stroke:#000000;stroke-width:0.5;" x="171.510632005" xlink:href="#md9a1c1a7cd" y="84.7710427936"/>
      </g>
     </g>
     <g id="text_8">
      <!-- $1.70$ -->
      <g transform="translate(7.2 88.070650466)scale(0.12 -0.12)">
       <use transform="scale(0.9962640099626402)" xlink:href="#CMR17-49"/>
       <use transform="translate(45.69047711706103 0.0)scale(0.9962640099626402)" xlink:href="#CMMI12-58"/>
       <use transform="translate(72.78765420688046 0.0)scale(0.9962640099626402)" xlink:href="#CMR17-55"/>
       <use transform="translate(118.47813132394148 0.0)scale(0.9962640099626402)" xlink:href="#CMR17-48"/>
      </g>
     </g>
    </g>
    <g id="ytick_4">
     <g id="line2d_22">
      <g>
       <use style="stroke:#000000;stroke-width:0.5;" x="32.010632005" xlink:href="#md7965d1ba0" y="48.7710427936"/>
      </g>
     </g>
     <g id="line2d_23">
      <g>
       <use style="stroke:#000000;stroke-width:0.5;" x="171.510632005" xlink:href="#md9a1c1a7cd" y="48.7710427936"/>
      </g>
     </g>
     <g id="text_9">
      <!-- $1.75$ -->
      <g transform="translate(7.2 52.070650466)scale(0.12 -0.12)">
       <use transform="scale(0.9962640099626402)" xlink:href="#CMR17-49"/>
       <use transform="translate(45.69047711706103 0.0)scale(0.9962640099626402)" xlink:href="#CMMI12-58"/>
       <use transform="translate(72.78765420688046 0.0)scale(0.9962640099626402)" xlink:href="#CMR17-55"/>
       <use transform="translate(118.47813132394148 0.0)scale(0.9962640099626402)" xlink:href="#CMR17-53"/>
      </g>
     </g>
    </g>
    <g id="ytick_5">
     <g id="line2d_24">
      <g>
       <use style="stroke:#000000;stroke-width:0.5;" x="32.010632005" xlink:href="#md7965d1ba0" y="12.7710427936"/>
      </g>
     </g>
     <g id="line2d_25">
      <g>
       <use style="stroke:#000000;stroke-width:0.5;" x="171.510632005" xlink:href="#md9a1c1a7cd" y="12.7710427936"/>
      </g>
     </g>
     <g id="text_10">
      <!-- $1.80$ -->
      <g transform="translate(7.2 16.070650466)scale(0.12 -0.12)">
       <use transform="scale(0.9962640099626402)" xlink:href="#CMR17-49"/>
       <use transform="translate(45.69047711706103 0.0)scale(0.9962640099626402)" xlink:href="#CMMI12-58"/>
       <use transform="translate(72.78765420688046 0.0)scale(0.9962640099626402)" xlink:href="#CMR17-56"/>
       <use transform="translate(118.47813132394148 0.0)scale(0.9962640099626402)" xlink:href="#CMR17-48"/>
      </g>
     </g>
    </g>
   </g>
   <g id="patch_6">
    <path d="
M32.0106 156.771
L171.511 156.771" style="fill:none;stroke:#000000;"/>
   </g>
   <g id="patch_7">
    <path d="
M171.511 156.771
L171.511 12.771" style="fill:none;stroke:#000000;"/>
   </g>
   <g id="patch_8">
    <path d="
M32.0106 12.771
L171.511 12.771" style="fill:none;stroke:#000000;"/>
   </g>
   <g id="patch_9">
    <path d="
M32.0106 156.771
L32.0106 12.771" style="fill:none;stroke:#000000;"/>
   </g>
   <g id="patch_10">
    <path d="
M58.3296 36.8439
Q49.0868 56.3039 39.9399 75.5619" style="fill:none;stroke:#000000;stroke-linecap:round;stroke-width:0.2;"/>
    <path d="
M44.1672 72.2558
L39.9399 75.5619
L39.8314 70.1964" style="fill:none;stroke:#000000;stroke-linecap:round;stroke-width:0.2;"/>
   </g>
   <g id="text_11">
    <!-- $y=g_2(x)$ -->
    <defs>
     <path d="
M26.2969 -10.9375
C23.5938 -14.6719 19.7031 -18 14.7969 -18
C13.5938 -18 8.79688 -18 7.29688 -13.8906
C7.59375 -13.9844 8.09375 -13.9844 8.29688 -13.9844
C11.2969 -13.9844 13.2969 -11.3906 13.2969 -9.09375
C13.2969 -6.79688 11.4062 -6 9.90625 -6
C8.29688 -6 4.79688 -7.15625 4.79688 -11.8594
C4.79688 -16.7344 9.09375 -20.0938 14.7969 -20.0938
C24.7969 -20.0938 34.9062 -10.9375 37.7031 0.09375
L47.5 38.8281
C47.5938 39.3281 47.7969 39.9375 47.7969 40.5312
C47.7969 42.0156 46.5938 43.0156 45.0938 43.0156
C44.2031 43.0156 42.0938 42.6094 41.2969 39.6094
L33.9062 10.2812
C33.4062 8.48438 33.4062 8.28125 32.5938 7.1875
C30.5938 4.39062 27.2969 1 22.5 1
C16.9062 1 16.4062 6.48438 16.4062 9.1875
C16.4062 14.875 19.0938 22.5469 21.7969 29.7344
C22.9062 32.625 23.5 34.0312 23.5 36.0156
C23.5 40.2188 20.5 44 15.5938 44
C6.40625 44 2.70312 29.5312 2.70312 28.7344
C2.70312 28.3438 3.09375 27.8438 3.79688 27.8438
C4.70312 27.8438 4.79688 28.2344 5.20312 29.6406
C7.59375 38.0156 11.4062 42.0156 15.2969 42.0156
C16.2031 42.0156 17.9062 42.0156 17.9062 38.7188
C17.9062 36.125 16.7969 33.2344 15.2969 29.4375
C10.4062 16.3594 10.4062 13.0781 10.4062 10.6719
C10.4062 1.20312 17.2031 -1 22.2031 -1
C25.0938 -1 28.7031 -0.09375 32.2031 3.59375
L32.2969 3.5
C30.7969 -2.29688 29.7969 -6.125 26.2969 -10.9375" id="CMMI12-121"/>
     <path d="
M33.7969 12.6719
C33.4062 11.0781 33.2031 10.6719 31.9062 9.1875
C27.7969 3.89062 23.5938 2 20.5 2
C17.2031 2 14.0938 4.59375 14.0938 11.4688
C14.0938 16.7656 17.0938 27.9375 19.2969 32.4375
C22.2031 38.0156 26.7031 42.0156 30.9062 42.0156
C37.5 42.0156 38.7969 33.8281 38.7969 33.2344
L38.5 31.8281
z

M40 37.4219
C38.7031 40.3125 35.9062 44 30.9062 44
C20 44 7.59375 30.3281 7.59375 15.4688
C7.59375 5.09375 13.9062 0 20.2969 0
C25.5938 0 30.2969 4.1875 32.0938 6.1875
L29.9062 -2.67188
C28.5 -8.0625 27.9062 -10.5312 24.2969 -13.9688
C20.2031 -18 16.4062 -18 14.2031 -18
C11.2031 -18 8.70312 -17.7969 6.20312 -17.0156
C9.40625 -16.1406 10.2031 -13.4062 10.2031 -12.3281
C10.2031 -10.7656 9 -9.1875 6.79688 -9.1875
C4.40625 -9.1875 1.79688 -11.1562 1.79688 -14.4062
C1.79688 -18.4375 5.90625 -20 14.4062 -20
C27.2969 -20 34 -11.7656 35.2969 -6.40625
L46.4062 38.0469
C46.7031 39.2344 46.7031 39.4375 46.7031 39.625
C46.7031 41.0156 45.5938 42.1094 44.0938 42.1094
C41.7031 42.1094 40.2969 40.1094 40 37.4219" id="CMMI12-103"/>
     <path d="
M64.2969 31.5156
C65.7969 31.5156 67.2969 31.5156 67.2969 33.2031
C67.2969 35 65.5938 35 63.9062 35
L8 35
C6.29688 35 4.59375 35 4.59375 33.2031
C4.59375 31.5156 6.09375 31.5156 7.59375 31.5156
z

M63.9062 14
C65.5938 14 67.2969 14 67.2969 15.7969
C67.2969 17.4844 65.7969 17.4844 64.2969 17.4844
L7.59375 17.4844
C6.09375 17.4844 4.59375 17.4844 4.59375 15.7969
C4.59375 14 6.29688 14 8 14
z
" id="CMR17-61"/>
     <path d="
M30.5938 -24.4062
C30.5938 -24.3125 30.5938 -24.1094 30.2969 -23.8125
C25.7031 -19.1406 13.4062 -6.39062 13.4062 24.6719
C13.4062 55.75 25.5 68.3906 30.4062 73.3594
C30.4062 73.4688 30.5938 73.6719 30.5938 73.9531
C30.5938 74.25 30.2969 74.4531 29.9062 74.4531
C28.7969 74.4531 20.2969 67.0781 15.4062 56.125
C10.4062 45.0781 9 34.3281 9 24.7812
C9 17.6094 9.70312 5.46875 15.7031 -7.375
C20.5 -17.7344 28.7031 -25 29.9062 -25
C30.4062 -25 30.5938 -24.7969 30.5938 -24.4062" id="CMR17-40"/>
     <path d="
M26.2969 24.6719
C26.2969 31.8438 25.5938 43.9844 19.5938 56.8281
C14.7969 67.1875 6.59375 74.4531 5.40625 74.4531
C5.09375 74.4531 4.70312 74.3438 4.70312 73.8594
C4.70312 73.6719 4.79688 73.5625 4.90625 73.3594
C9.70312 68.3906 21.9062 55.75 21.9062 24.7969
C21.9062 -6.28125 9.79688 -18.9219 4.90625 -23.9062
C4.79688 -24.0938 4.70312 -24.2031 4.70312 -24.3906
C4.70312 -24.8906 5.09375 -25 5.40625 -25
C6.5 -25 15 -17.625 19.9062 -6.67188
C24.9062 4.375 26.2969 15.125 26.2969 24.6719" id="CMR17-41"/>
     <path d="
M41.7031 15.4531
L39.9062 15.4531
C38.9062 8.375 38.0938 7.17188 37.7031 6.5625
C37.2031 5.76562 30 5.76562 28.5938 5.76562
L9.40625 5.76562
C13 9.67188 20 16.75 28.5 24.9531
C34.5938 30.7344 41.7031 37.5312 41.7031 47.4219
C41.7031 59.2188 32.2969 66 21.7969 66
C10.7969 66 4.09375 56.3125 4.09375 47.3438
C4.09375 43.4375 7 42.9375 8.20312 42.9375
C9.20312 42.9375 12.2031 43.5469 12.2031 47.0312
C12.2031 50.1094 9.59375 51 8.20312 51
C7.59375 51 7 50.9062 6.59375 50.7031
C8.5 59.2188 14.2969 63.4062 20.4062 63.4062
C29.0938 63.4062 34.7969 56.5156 34.7969 47.4219
C34.7969 38.7344 29.7031 31.25 24 24.75
L4.09375 2.28125
L4.09375 0
L39.2969 0
z
" id="CMR17-50"/>
     <path d="
M47.4062 40.7188
C44.2031 40.1094 43 37.7188 43 35.8281
C43 33.4219 44.9062 32.625 46.2969 32.625
C49.2969 32.625 51.4062 35.2188 51.4062 37.9219
C51.4062 42.1094 46.5938 44 42.4062 44
C36.2969 44 32.9062 38.0156 32 36.125
C29.7031 44 23.5 44 21.7031 44
C11.5 44 6.09375 30.9375 6.09375 28.7344
C6.09375 28.3438 6.5 27.8438 7.20312 27.8438
C8 27.8438 8.20312 28.4375 8.40625 28.8438
C11.7969 39.9219 18.5 42.0156 21.4062 42.0156
C25.9062 42.0156 26.7969 37.8125 26.7969 35.4219
C26.7969 33.2344 26.2031 30.9375 25 26.1406
L21.5938 12.4688
C20.0938 6.48438 17.2031 1 11.9062 1
C11.4062 1 8.90625 1 6.79688 2.29688
C10.4062 3 11.2031 5.98438 11.2031 7.1875
C11.2031 9.1875 9.70312 10.375 7.79688 10.375
C5.40625 10.375 2.79688 8.28125 2.79688 5.09375
C2.79688 0.890625 7.5 -1 11.7969 -1
C16.5938 -1 20 2.79688 22.0938 6.89062
C23.7031 1 28.7031 -1 32.4062 -1
C42.5938 -1 48 12.0781 48 14.2656
C48 14.7656 47.5938 15.1719 47 15.1719
C46.0938 15.1719 46 14.6719 45.7031 13.875
C43 5.09375 37.2031 1 32.7031 1
C29.2031 1 27.2969 3.59375 27.2969 7.6875
C27.2969 9.875 27.7031 11.4688 29.2969 18.0625
L32.7969 31.625
C34.2969 37.625 37.7031 42.0156 42.2969 42.0156
C42.5 42.0156 45.2969 42.0156 47.4062 40.7188" id="CMMI12-120"/>
    </defs>
    <g transform="translate(38.985632005 30.7710427936)scale(0.12 -0.12)">
     <use transform="translate(0.0 14.943914544092468)scale(0.9962640099626402)" xlink:href="#CMMI12-121"/>
     <use transform="translate(78.8127894419365 14.943914544092468)scale(0.9962640099626402)" xlink:href="#CMR17-61"/>
     <use transform="translate(178.2015865796233 14.943914544092468)scale(0.9962640099626402)" xlink:href="#CMMI12-103"/>
     <use transform="translate(224.91248333884653 0.0)scale(0.6973817666173724)" xlink:href="#CMR17-50"/>
     <use transform="translate(257.3937973079468 14.943914544092468)scale(0.9962640099626402)" xlink:href="#CMR17-40"/>
     <use transform="translate(292.67456510740976 14.943914544092468)scale(0.9962640099626402)" xlink:href="#CMMI12-120"/>
     <use transform="translate(348.10862464002184 14.943914544092468)scale(0.9962640099626402)" xlink:href="#CMR17-41"/>
    </g>
   </g>
   <g id="patch_11">
    <path d="
M134.214 29.422
Q141.443 31.6072 148.457 33.7276" style="fill:none;stroke:#000000;stroke-linecap:round;stroke-width:0.2;"/>
    <path d="
M144.557 30.0413
L148.457 33.7276
L143.168 34.636" style="fill:none;stroke:#000000;stroke-linecap:round;stroke-width:0.2;"/>
   </g>
   <g id="text_12">
    <!-- $y=x$ -->
    <g transform="translate(101.760632005 27.1710427936)scale(0.12 -0.12)">
     <use transform="scale(0.9962640099626402)" xlink:href="#CMMI12-121"/>
     <use transform="translate(78.8127894419365 0.0)scale(0.9962640099626402)" xlink:href="#CMR17-61"/>
     <use transform="translate(178.2015865796233 0.0)scale(0.9962640099626402)" xlink:href="#CMMI12-120"/>
    </g>
   </g>
   <g id="text_13">
    <!-- $x^{\!*}$ -->
    <defs>
     <path d="
M27.5 42.4844
C27.5938 43.875 27.5938 46.2812 25 46.2812
C23.4062 46.2812 22.0938 44.9688 22.4062 43.6719
L22.4062 42.375
L23.7969 26.875
L11 36.1875
C10.0938 36.6875 9.90625 36.875 9.20312 36.875
C7.79688 36.875 6.5 35.4844 6.5 34.0781
C6.5 32.4844 7.5 32.0781 8.5 31.5781
L22.7031 24.7812
L8.90625 18.0938
C7.29688 17.2969 6.5 16.8906 6.5 15.3906
C6.5 13.8906 7.79688 12.5938 9.20312 12.5938
C9.90625 12.5938 10.0938 12.5938 12.5938 14.5
L23.7969 22.5781
L22.2969 5.79688
C22.2969 3.6875 24.0938 3.1875 24.9062 3.1875
C26.0938 3.1875 27.5938 3.875 27.5938 5.79688
L26.0938 22.5781
L38.9062 13.2969
C39.7969 12.7969 40 12.5938 40.7031 12.5938
C42.0938 12.5938 43.4062 14 43.4062 15.3906
C43.4062 16.875 42.5 17.375 41.2969 17.9844
C35.2969 20.9844 35.0938 20.9844 27.2031 24.6875
L41 31.375
C42.5938 32.1875 43.4062 32.5781 43.4062 34.0781
C43.4062 35.5781 42.0938 36.875 40.7031 36.875
C40 36.875 39.7969 36.875 37.2969 34.9844
L26.0938 26.875
z
" id="CMSY10-3"/>
    </defs>
    <g transform="translate(138.747663917 60.9908808203)scale(0.12 -0.12)">
     <use transform="scale(0.9962640099626402)" xlink:href="#CMMI12-120"/>
     <use transform="translate(43.81103515625001 36.15363894185866)scale(0.6973817666173724)" xlink:href="#CMSY10-3"/>
    </g>
   </g>
   <g id="text_14">
    <!-- $x^{(1)}$ -->
    <g transform="translate(59.910632005 62.8656445281)scale(0.12 -0.12)">
     <use transform="scale(0.9962640099626402)" xlink:href="#CMMI12-120"/>
     <use transform="translate(55.43405953261208 36.15363894185866)scale(0.6973817666173724)" xlink:href="#CMR17-40"/>
     <use transform="translate(80.13047993851184 36.15363894185866)scale(0.6973817666173724)" xlink:href="#CMR17-49"/>
     <use transform="translate(112.11366190263077 36.15363894185866)scale(0.6973817666173724)" xlink:href="#CMR17-41"/>
    </g>
   </g>
   <g id="text_15">
    <!-- $x^{(2)}$ -->
    <g transform="translate(109.031486575 48.8916630474)scale(0.12 -0.12)">
     <use transform="scale(0.9962640099626402)" xlink:href="#CMMI12-120"/>
     <use transform="translate(55.43405953261208 36.15363894185866)scale(0.6973817666173724)" xlink:href="#CMR17-40"/>
     <use transform="translate(80.13047993851184 36.15363894185866)scale(0.6973817666173724)" xlink:href="#CMR17-50"/>
     <use transform="translate(112.11366190263077 36.15363894185866)scale(0.6973817666173724)" xlink:href="#CMR17-41"/>
    </g>
   </g>
  </g>
 </g>
 <defs>
  <clipPath id="pca80d0e1e4">
   <rect height="144.0" width="139.5" x="32.010632005" y="12.7710427936"/>
  </clipPath>
 </defs>
</svg>
