<?xml version="1.0" encoding="utf-8" standalone="no"?>
<!DOCTYPE svg PUBLIC "-//W3C//DTD SVG 1.1//EN"
  "http://www.w3.org/Graphics/SVG/1.1/DTD/svg11.dtd">
<!-- Created with matplotlib (http://matplotlib.org/) -->
<svg height="208pt" version="1.1" viewBox="0 0 207 208" width="207pt" xmlns="http://www.w3.org/2000/svg" xmlns:xlink="http://www.w3.org/1999/xlink">
 <defs>
  <style type="text/css">
*{stroke-linecap:butt;stroke-linejoin:round;}
  </style>
 </defs>
 <g id="figure_1">
  <g id="patch_1">
   <path d="
M0 208.621
L207.595 208.621
L207.595 0
L0 0
z
" style="fill:none;"/>
  </g>
  <g id="axes_1">
   <g id="patch_2">
    <path clip-path="url(#p8d9a212da3)" d="
M179.868 157.007
L175.682 158.447
L175.682 157.014
L26.4175 157.014
L26.4175 157
L175.682 157
L175.682 155.567
z
" style="stroke:#000000;stroke-linejoin:miter;stroke-width:2;"/>
   </g>
   <g id="patch_3">
    <path clip-path="url(#p8d9a212da3)" d="
M54.3175 13.0069
L55.7125 17.3269
L54.3245 17.3269
L54.3245 185.807
L54.3105 185.807
L54.3105 17.3269
L52.9225 17.3269
z
" style="stroke:#000000;stroke-linejoin:miter;stroke-width:1.5;"/>
   </g>
   <g id="line2d_1">
    <defs>
     <path d="
M0 2
C0.530406 2 1.03916 1.78927 1.41421 1.41421
C1.78927 1.03916 2 0.530406 2 0
C2 -0.530406 1.78927 -1.03916 1.41421 -1.41421
C1.03916 -1.78927 0.530406 -2 0 -2
C-0.530406 -2 -1.03916 -1.78927 -1.41421 -1.41421
C-1.78927 -1.03916 -2 -0.530406 -2 0
C-2 0.530406 -1.78927 1.03916 -1.41421 1.41421
C-1.03916 1.78927 -0.530406 2 0 2
z
" id="m76eb5f4da3" style="stroke:#000000;stroke-width:0.5;"/>
    </defs>
    <g clip-path="url(#p8d9a212da3)">
     <use style="stroke:#000000;stroke-width:0.5;" x="82.2175" xlink:href="#m76eb5f4da3" y="171.406875"/>
     <use style="stroke:#000000;stroke-width:0.5;" x="96.1675" xlink:href="#m76eb5f4da3" y="135.406875"/>
     <use style="stroke:#000000;stroke-width:0.5;" x="110.1175" xlink:href="#m76eb5f4da3" y="141.166875"/>
     <use style="stroke:#000000;stroke-width:0.5;" x="124.0675" xlink:href="#m76eb5f4da3" y="121.006875"/>
     <use style="stroke:#000000;stroke-width:0.5;" x="138.0175" xlink:href="#m76eb5f4da3" y="117.406875"/>
     <use style="stroke:#000000;stroke-width:0.5;" x="158.9425" xlink:href="#m76eb5f4da3" y="70.606875"/>
    </g>
   </g>
   <g id="line2d_2">
    <path clip-path="url(#p8d9a212da3)" d="
M78.73 180.115
L80.5093 174.513
L82.2887 169.366
L84.068 164.653
L85.8473 160.352
L87.6267 156.441
L89.406 152.899
L91.1854 149.703
L92.9647 146.832
L94.744 144.265
L96.5234 141.979
L98.3027 139.953
L100.082 138.166
L101.861 136.595
L103.641 135.22
L105.42 134.017
L107.199 132.966
L108.979 132.045
L110.758 131.233
L112.537 130.506
L114.317 129.845
L116.096 129.227
L117.875 128.63
L119.655 128.033
L121.434 127.414
L123.213 126.752
L124.993 126.024
L126.772 125.209
L128.551 124.286
L130.331 123.232
L132.11 122.026
L133.889 120.647
L135.669 119.072
L137.448 117.28
L139.227 115.249
L141.007 112.958
L142.786 110.384
L144.565 107.507
L146.345 104.304
L148.124 100.754
L149.903 96.8354
L151.683 92.526
L153.462 87.8043
L155.241 82.6486
L157.021 77.0373
L158.8 70.9487
L160.579 64.361
L162.359 57.2527
L164.138 49.6019
L165.917 41.3871" style="fill:none;stroke:#0000ff;stroke-linecap:square;"/>
   </g>
   <g id="line2d_3">
    <path clip-path="url(#p8d9a212da3)" d="
M68.2675 169.056
L70.2604 167.121
L72.2532 165.186
L74.2461 163.25
L76.2389 161.315
L78.2318 159.379
L80.2246 157.444
L82.2175 155.509
L84.2104 153.573
L86.2032 151.638
L88.1961 149.703
L90.1889 147.767
L92.1818 145.832
L94.1746 143.897
L96.1675 141.961
L98.1604 140.026
L100.153 138.091
L102.146 136.155
L104.139 134.22
L106.132 132.284
L108.125 130.349
L110.117 128.414
L112.11 126.478
L114.103 124.543
L116.096 122.608
L118.089 120.672
L120.082 118.737
L122.075 116.802
L124.067 114.866
L126.06 112.931
L128.053 110.995
L130.046 109.06
L132.039 107.125
L134.032 105.189
L136.025 103.254
L138.017 101.319
L140.01 99.3833
L142.003 97.4479
L143.996 95.5125
L145.989 93.5772
L147.982 91.6418
L149.975 89.7064
L151.967 87.7711
L153.96 85.8357
L155.953 83.9004
L157.946 81.965
L159.939 80.0296
L161.932 78.0943
L163.925 76.1589
L165.917 74.2235" style="fill:none;stroke:#ff0000;stroke-linecap:square;"/>
   </g>
  </g>
 </g>
 <defs>
  <clipPath id="p8d9a212da3">
   <rect height="172.8" width="167.4" x="26.4175" y="13.006875"/>
  </clipPath>
 </defs>
</svg>
