<?xml version="1.0" encoding="utf-8" standalone="no"?>
<!DOCTYPE svg PUBLIC "-//W3C//DTD SVG 1.1//EN"
  "http://www.w3.org/Graphics/SVG/1.1/DTD/svg11.dtd">
<!-- Created with matplotlib (http://matplotlib.org/) -->
<svg height="187pt" version="1.1" viewBox="0 0 181 187" width="181pt" xmlns="http://www.w3.org/2000/svg" xmlns:xlink="http://www.w3.org/1999/xlink">
 <defs>
  <style type="text/css">
*{stroke-linecap:butt;stroke-linejoin:round;}
  </style>
 </defs>
 <g id="figure_1">
  <g id="patch_1">
   <path d="
M0 187.377
L181.8 187.377
L181.8 0
L0 0
z
" style="fill:#ffffff;"/>
  </g>
  <g id="axes_1">
   <g id="patch_2">
    <path clip-path="url(#p88af2fa62c)" d="
M174.6 93.7775
L171.112 95.9375
L171.112 93.7861
L7.2 93.7861
L7.2 93.7688
L171.112 93.7688
L171.112 91.6175
z
" style="stroke:#000000;stroke-linejoin:miter;"/>
   </g>
   <g id="patch_3">
    <path clip-path="url(#p88af2fa62c)" d="
M35.1 7.37749
L36.8437 11.6975
L35.107 11.6975
L35.107 180.177
L35.093 180.177
L35.093 11.6975
L33.3562 11.6975
z
" style="stroke:#000000;stroke-linejoin:miter;"/>
   </g>
   <g id="line2d_1">
    <path clip-path="url(#p88af2fa62c)" d="
M63 159.425
L63.8455 158.996
L64.6909 158.542
L65.5364 158.064
L66.3818 157.562
L67.2273 157.037
L68.0727 156.488
L68.9182 155.915
L69.7636 155.32
L70.6091 154.701
L71.4545 154.06
L72.3 153.397
L73.1455 152.711
L73.9909 152.003
L74.8364 151.274
L75.6818 150.523
L76.5273 149.751
L77.3727 148.959
L78.2182 148.145
L79.0636 147.312
L79.9091 146.459
L80.7545 145.586
L81.6 144.693
L82.4455 143.782
L83.2909 142.852
L84.1364 141.904
L84.9818 140.938
L85.8273 139.955
L86.6727 138.954
L87.5182 137.936
L88.3636 136.902
L89.2091 135.852
L90.0545 134.787
L90.9 133.706
L91.7455 132.61
L92.5909 131.5
L93.4364 130.375
L94.2818 129.238
L95.1273 128.086
L95.9727 126.923
L96.8182 125.746
L97.6636 124.558
L98.5091 123.359
L99.3545 122.148
L100.2 120.927
L101.045 119.696
L101.891 118.455
L102.736 117.205
L103.582 115.946
L104.427 114.679
L105.273 113.404
L106.118 112.122
L106.964 110.833
L107.809 109.538
L108.655 108.237
L109.5 106.93
L110.345 105.619
L111.191 104.303
L112.036 102.983
L112.882 101.66
L113.727 100.334
L114.573 99.0052
L115.418 97.6747
L116.264 96.3427
L117.109 95.0098
L117.955 93.6765
L118.8 92.3431
L119.645 91.0103
L120.491 89.6786
L121.336 88.3483
L122.182 87.0201
L123.027 85.6944
L123.873 84.3717
L124.718 83.0525
L125.564 81.7373
L126.409 80.4266
L127.255 79.1209
L128.1 77.8206
L128.945 76.5262
L129.791 75.2383
L130.636 73.9572
L131.482 72.6836
L132.327 71.4177
L133.173 70.1603
L134.018 68.9115
L134.864 67.6721
L135.709 66.4424
L136.555 65.2228
L137.4 64.0139
L138.245 62.816
L139.091 61.6297
L139.936 60.4553
L140.782 59.2933
L141.627 58.1442
L142.473 57.0083
L143.318 55.8861
L144.164 54.778
L145.009 53.6844
L145.855 52.6058
L146.7 51.5425" style="fill:none;stroke:#0000ff;stroke-linecap:square;"/>
   </g>
   <g id="line2d_2">
    <defs>
     <path d="
M0 1.5
C0.397805 1.5 0.77937 1.34195 1.06066 1.06066
C1.34195 0.77937 1.5 0.397805 1.5 0
C1.5 -0.397805 1.34195 -0.77937 1.06066 -1.06066
C0.77937 -1.34195 0.397805 -1.5 0 -1.5
C-0.397805 -1.5 -0.77937 -1.34195 -1.06066 -1.06066
C-1.34195 -0.77937 -1.5 -0.397805 -1.5 0
C-1.5 0.397805 -1.34195 0.77937 -1.06066 1.06066
C-0.77937 1.34195 -0.397805 1.5 0 1.5
z
" id="m66763a63fb" style="stroke:#000000;stroke-width:0.5;"/>
    </defs>
    <g clip-path="url(#p88af2fa62c)">
     <use style="stroke:#000000;stroke-width:0.5;" x="63.0" xlink:href="#m66763a63fb" y="159.42529608"/>
    </g>
   </g>
   <g id="line2d_3">
    <path clip-path="url(#p88af2fa62c)" d="
M33.705 159.425
L36.495 159.425" style="fill:none;stroke:#000000;stroke-linecap:square;"/>
   </g>
   <g id="line2d_4">
    <path clip-path="url(#p88af2fa62c)" d="
M35.1 159.425
L63 159.425" style="fill:none;stroke:#808080;stroke-dasharray:6.000000,6.000000;stroke-dashoffset:0.0;"/>
   </g>
   <g id="line2d_5">
    <path clip-path="url(#p88af2fa62c)" d="
M63 159.425
L63 93.7775" style="fill:none;stroke:#808080;stroke-dasharray:6.000000,6.000000;stroke-dashoffset:0.0;"/>
   </g>
   <g id="line2d_6">
    <path clip-path="url(#p88af2fa62c)" d="
M63 95.5055
L63 92.0495" style="fill:none;stroke:#000000;stroke-linecap:square;"/>
   </g>
   <g id="line2d_7">
    <g clip-path="url(#p88af2fa62c)">
     <use style="stroke:#000000;stroke-width:0.5;" x="146.7" xlink:href="#m66763a63fb" y="51.5424512466"/>
    </g>
   </g>
   <g id="line2d_8">
    <path clip-path="url(#p88af2fa62c)" d="
M33.705 51.5425
L36.495 51.5425" style="fill:none;stroke:#000000;stroke-linecap:square;"/>
   </g>
   <g id="line2d_9">
    <path clip-path="url(#p88af2fa62c)" d="
M35.1 51.5425
L146.7 51.5425" style="fill:none;stroke:#808080;stroke-dasharray:6.000000,6.000000;stroke-dashoffset:0.0;"/>
   </g>
   <g id="line2d_10">
    <path clip-path="url(#p88af2fa62c)" d="
M146.7 51.5425
L146.7 93.7775" style="fill:none;stroke:#808080;stroke-dasharray:6.000000,6.000000;stroke-dashoffset:0.0;"/>
   </g>
   <g id="line2d_11">
    <path clip-path="url(#p88af2fa62c)" d="
M146.7 95.5055
L146.7 92.0495" style="fill:none;stroke:#000000;stroke-linecap:square;"/>
   </g>
   <g id="line2d_12">
    <g clip-path="url(#p88af2fa62c)">
     <use style="stroke:#000000;stroke-width:0.5;" x="104.85" xlink:href="#m66763a63fb" y="114.042453049"/>
    </g>
   </g>
   <g id="line2d_13">
    <path clip-path="url(#p88af2fa62c)" d="
M33.705 114.042
L36.495 114.042" style="fill:none;stroke:#000000;stroke-linecap:square;"/>
   </g>
   <g id="line2d_14">
    <path clip-path="url(#p88af2fa62c)" d="
M35.1 114.042
L104.85 114.042" style="fill:none;stroke:#808080;stroke-dasharray:6.000000,6.000000;stroke-dashoffset:0.0;"/>
   </g>
   <g id="line2d_15">
    <path clip-path="url(#p88af2fa62c)" d="
M104.85 114.042
L104.85 93.7775" style="fill:none;stroke:#808080;stroke-dasharray:6.000000,6.000000;stroke-dashoffset:0.0;"/>
   </g>
   <g id="line2d_16">
    <path clip-path="url(#p88af2fa62c)" d="
M104.85 95.5055
L104.85 92.0495" style="fill:none;stroke:#000000;stroke-linecap:square;"/>
   </g>
   <g id="line2d_17">
    <path clip-path="url(#p88af2fa62c)" d="
M104.85 93.7775
L146.7 93.7775" style="fill:none;stroke:#ff0000;stroke-linecap:square;"/>
   </g>
   <g id="matplotlib.axis_1"/>
   <g id="matplotlib.axis_2"/>
   <g id="text_1">
    <!-- $x$ -->
    <defs>
     <path d="
M47.4062 40.7188
C44.2031 40.1094 43 37.7188 43 35.8281
C43 33.4219 44.9062 32.625 46.2969 32.625
C49.2969 32.625 51.4062 35.2188 51.4062 37.9219
C51.4062 42.1094 46.5938 44 42.4062 44
C36.2969 44 32.9062 38.0156 32 36.125
C29.7031 44 23.5 44 21.7031 44
C11.5 44 6.09375 30.9375 6.09375 28.7344
C6.09375 28.3438 6.5 27.8438 7.20312 27.8438
C8 27.8438 8.20312 28.4375 8.40625 28.8438
C11.7969 39.9219 18.5 42.0156 21.4062 42.0156
C25.9062 42.0156 26.7969 37.8125 26.7969 35.4219
C26.7969 33.2344 26.2031 30.9375 25 26.1406
L21.5938 12.4688
C20.0938 6.48438 17.2031 1 11.9062 1
C11.4062 1 8.90625 1 6.79688 2.29688
C10.4062 3 11.2031 5.98438 11.2031 7.1875
C11.2031 9.1875 9.70312 10.375 7.79688 10.375
C5.40625 10.375 2.79688 8.28125 2.79688 5.09375
C2.79688 0.890625 7.5 -1 11.7969 -1
C16.5938 -1 20 2.79688 22.0938 6.89062
C23.7031 1 28.7031 -1 32.4062 -1
C42.5938 -1 48 12.0781 48 14.2656
C48 14.7656 47.5938 15.1719 47 15.1719
C46.0938 15.1719 46 14.6719 45.7031 13.875
C43 5.09375 37.2031 1 32.7031 1
C29.2031 1 27.2969 3.59375 27.2969 7.6875
C27.2969 9.875 27.7031 11.4688 29.2969 18.0625
L32.7969 31.625
C34.2969 37.625 37.7031 42.0156 42.2969 42.0156
C42.5 42.0156 45.2969 42.0156 47.4062 40.7188" id="CMMI12-120"/>
    </defs>
    <g transform="translate(167.625 106.737489833)scale(0.12 -0.12)">
     <use transform="scale(0.996264009963)" xlink:href="#CMMI12-120"/>
    </g>
   </g>
   <g id="text_2">
    <!-- $y$ -->
    <defs>
     <path d="
M26.2969 -10.9375
C23.5938 -14.6719 19.7031 -18 14.7969 -18
C13.5938 -18 8.79688 -18 7.29688 -13.8906
C7.59375 -13.9844 8.09375 -13.9844 8.29688 -13.9844
C11.2969 -13.9844 13.2969 -11.3906 13.2969 -9.09375
C13.2969 -6.79688 11.4062 -6 9.90625 -6
C8.29688 -6 4.79688 -7.15625 4.79688 -11.8594
C4.79688 -16.7344 9.09375 -20.0938 14.7969 -20.0938
C24.7969 -20.0938 34.9062 -10.9375 37.7031 0.09375
L47.5 38.8281
C47.5938 39.3281 47.7969 39.9375 47.7969 40.5312
C47.7969 42.0156 46.5938 43.0156 45.0938 43.0156
C44.2031 43.0156 42.0938 42.6094 41.2969 39.6094
L33.9062 10.2812
C33.4062 8.48438 33.4062 8.28125 32.5938 7.1875
C30.5938 4.39062 27.2969 1 22.5 1
C16.9062 1 16.4062 6.48438 16.4062 9.1875
C16.4062 14.875 19.0938 22.5469 21.7969 29.7344
C22.9062 32.625 23.5 34.0312 23.5 36.0156
C23.5 40.2188 20.5 44 15.5938 44
C6.40625 44 2.70312 29.5312 2.70312 28.7344
C2.70312 28.3438 3.09375 27.8438 3.79688 27.8438
C4.70312 27.8438 4.79688 28.2344 5.20312 29.6406
C7.59375 38.0156 11.4062 42.0156 15.2969 42.0156
C16.2031 42.0156 17.9062 42.0156 17.9062 38.7188
C17.9062 36.125 16.7969 33.2344 15.2969 29.4375
C10.4062 16.3594 10.4062 13.0781 10.4062 10.6719
C10.4062 1.20312 17.2031 -1 22.2031 -1
C25.0938 -1 28.7031 -0.09375 32.2031 3.59375
L32.2969 3.5
C30.7969 -2.29688 29.7969 -6.125 26.2969 -10.9375" id="CMMI12-121"/>
    </defs>
    <g transform="translate(24.6375 16.017489833)scale(0.12 -0.12)">
     <use transform="scale(0.996264009963)" xlink:href="#CMMI12-121"/>
    </g>
   </g>
   <g id="text_3">
    <!-- $f(a)$ -->
    <defs>
     <path d="
M44.5938 40.0938
C46.5938 40.0938 47.4062 40.0938 47.4062 42
C47.4062 43 46.5938 43 44.7969 43
L36.7031 43
C38.5938 53.5781 40 60.8906 40.7969 64.1719
C41.4062 66.6406 43.5 69 46.0938 69
C48.2031 69 50.2969 68.0938 51.2969 67.1562
C47.4062 66.75 46.2031 63.7812 46.2031 62.0156
C46.2031 59.9531 47.7031 58.7344 49.5938 58.7344
C51.5938 58.7344 54.5938 60.4688 54.5938 64.3594
C54.5938 68.6406 50.4062 71 46 71
C41.7031 71 37.5 67.7188 35.5 63.7188
C33.7031 60.125 32.7031 56.4375 30.4062 43
L23.7031 43
C21.7969 43 20.7969 43 20.7969 41.2031
C20.7969 40.0938 21.4062 40.0938 23.4062 40.0938
L29.7969 40.0938
C28 30.875 23.9062 8.46875 21.5938 -2.14062
C19.9062 -10.7656 18.4062 -18 13.4062 -18
C13.0938 -18 10.2031 -18 8.40625 -16.1094
C13.5 -15.7031 13.5 -11.3438 13.5 -11.25
C13.5 -9.26562 12 -8.07812 10.0938 -8.07812
C8.09375 -8.07812 5.09375 -9.76562 5.09375 -13.5469
C5.09375 -17.8125 9.5 -20 13.4062 -20
C23.5938 -20 27.7969 -1.84375 28.9062 3.10938
C30.7031 10.75 35.5938 37.125 36.0938 40.0938
z
" id="CMMI12-102"/>
     <path d="
M26.2969 24.6719
C26.2969 31.8438 25.5938 43.9844 19.5938 56.8281
C14.7969 67.1875 6.59375 74.4531 5.40625 74.4531
C5.09375 74.4531 4.70312 74.3438 4.70312 73.8594
C4.70312 73.6719 4.79688 73.5625 4.90625 73.3594
C9.70312 68.3906 21.9062 55.75 21.9062 24.7969
C21.9062 -6.28125 9.79688 -18.9219 4.90625 -23.9062
C4.79688 -24.0938 4.70312 -24.2031 4.70312 -24.3906
C4.70312 -24.8906 5.09375 -25 5.40625 -25
C6.5 -25 15 -17.625 19.9062 -6.67188
C24.9062 4.375 26.2969 15.125 26.2969 24.6719" id="CMR17-41"/>
     <path d="
M30.5938 -24.4062
C30.5938 -24.3125 30.5938 -24.1094 30.2969 -23.8125
C25.7031 -19.1406 13.4062 -6.39062 13.4062 24.6719
C13.4062 55.75 25.5 68.3906 30.4062 73.3594
C30.4062 73.4688 30.5938 73.6719 30.5938 73.9531
C30.5938 74.25 30.2969 74.4531 29.9062 74.4531
C28.7969 74.4531 20.2969 67.0781 15.4062 56.125
C10.4062 45.0781 9 34.3281 9 24.7812
C9 17.6094 9.70312 5.46875 15.7031 -7.375
C20.5 -17.7344 28.7031 -25 29.9062 -25
C30.4062 -25 30.5938 -24.7969 30.5938 -24.4062" id="CMR17-40"/>
     <path d="
M30.0938 11.875
C29.5938 10.1719 29.5938 9.98438 28.2031 8.07812
C26 5.28125 21.5938 1 16.9062 1
C12.7969 1 10.5 4.6875 10.5 10.5781
C10.5 16.0625 13.5938 27.2344 15.5 31.4375
C18.9062 38.4219 23.5938 42.0156 27.5 42.0156
C34.0938 42.0156 35.4062 33.8281 35.4062 33.0312
C35.4062 32.9375 35.0938 31.625 35 31.4375
z

M36.5 37.4219
C35.4062 40.0156 32.7031 44 27.5 44
C16.2031 44 4 29.4375 4 14.6719
C4 4.79688 9.79688 -1 16.5938 -1
C22.0938 -1 26.7969 3.29688 29.5938 6.59375
C30.5938 0.703125 35.2969 -1 38.2969 -1
C41.2969 -1 43.7031 0.796875 45.5 4.39062
C47.0938 7.78125 48.5 13.875 48.5 14.2656
C48.5 14.7656 48.0938 15.1719 47.5 15.1719
C46.5938 15.1719 46.5 14.6719 46.0938 13.1719
C44.5938 7.28125 42.7031 1 38.5938 1
C35.7031 1 35.5 3.59375 35.5 5.59375
C35.5 7.89062 35.7969 8.98438 36.7031 12.875
C37.4062 15.375 37.9062 17.5625 38.7031 20.4531
C42.4062 35.4219 43.2969 39.0156 43.2969 39.6094
C43.2969 41.0156 42.2031 42.1094 40.7031 42.1094
C37.5 42.1094 36.7031 38.625 36.5 37.4219" id="CMMI12-97"/>
    </defs>
    <g transform="translate(7.2 159.42529608)scale(0.12 -0.12)">
     <use transform="scale(0.996264009963)" xlink:href="#CMMI12-102"/>
     <use transform="translate(58.7203048383 0.0)scale(0.996264009963)" xlink:href="#CMR17-40"/>
     <use transform="translate(94.0010726378 0.0)scale(0.996264009963)" xlink:href="#CMMI12-97"/>
     <use transform="translate(145.208930257 0.0)scale(0.996264009963)" xlink:href="#CMR17-41"/>
    </g>
   </g>
   <g id="text_4">
    <!-- $a$ -->
    <g transform="translate(59.5125 87.729489833)scale(0.12 -0.12)">
     <use transform="scale(0.996264009963)" xlink:href="#CMMI12-97"/>
    </g>
   </g>
   <g id="text_5">
    <!-- $f(b)$ -->
    <defs>
     <path d="
M23.0938 66.5156
C23.2031 66.9219 23.4062 67.5156 23.4062 68.0156
C23.4062 69 22.4062 69 22.2031 69
C22.0938 69 18.5 68.6406 16.7031 68.3906
C15 68.3906 13.5 68.0938 11.7031 68.0938
C9.29688 67.8906 8.59375 67.7969 8.59375 66
C8.59375 65 9.59375 65 10.5938 65
C15.7031 65 15.7031 64.0938 15.7031 63.0938
C15.7031 62.4219 14.9062 59.5156 14.5 57.7344
L12.0938 48.1875
C11.0938 44.2188 5.40625 21.6562 5 19.875
C4.5 17.3906 4.5 15.7031 4.5 14.4062
C4.5 4.28125 10.2031 -1 16.7031 -1
C28.2969 -1 40.2969 13.875 40.2969 28.3438
C40.2969 37.5156 35.0938 44 27.5938 44
C22.4062 44 17.7031 39.7188 15.7969 37.7188
z

M16.7969 1
C13.5938 1 10.0938 3.39062 10.0938 11.1719
C10.0938 14.4688 10.4062 16.3594 12.2031 23.3438
C12.5 24.6406 14.0938 31.0312 14.5 32.3281
C14.7031 33.125 20.5938 42.0156 27.4062 42.0156
C31.7969 42.0156 33.7969 37.625 33.7969 32.4375
C33.7969 27.6406 31 16.3594 28.5 11.1719
C26 5.78125 21.4062 1 16.7969 1" id="CMMI12-98"/>
    </defs>
    <g transform="translate(7.2 51.5424512466)scale(0.12 -0.12)">
     <use transform="scale(0.996264009963)" xlink:href="#CMMI12-102"/>
     <use transform="translate(58.7203048383 0.0)scale(0.996264009963)" xlink:href="#CMR17-40"/>
     <use transform="translate(94.0010726378 0.0)scale(0.996264009963)" xlink:href="#CMMI12-98"/>
     <use transform="translate(135.476946801 0.0)scale(0.996264009963)" xlink:href="#CMR17-41"/>
    </g>
   </g>
   <g id="text_6">
    <!-- $b$ -->
    <g transform="translate(143.2125 106.737489833)scale(0.12 -0.12)">
     <use transform="scale(0.996264009963)" xlink:href="#CMMI12-98"/>
    </g>
   </g>
   <g id="text_7">
    <!-- $f(p)$ -->
    <defs>
     <path d="
M4.29688 -12.3281
C3.59375 -15.3125 3.20312 -16.1094 -0.90625 -16.1094
C-2.09375 -16.1094 -3.09375 -16.1094 -3.09375 -18
C-3.09375 -18.2031 -3 -19 -1.90625 -19
C-0.59375 -19 0.796875 -19 2.09375 -19
L6.40625 -19
C8.5 -19 13.5938 -19 15.7031 -19
C16.2969 -19 17.5 -19 17.5 -17.2031
C17.5 -16.1094 16.7969 -16.1094 15.0938 -16.1094
C10.5 -16.1094 10.2031 -15.4219 10.2031 -14.6406
C10.2031 -13.4531 14.7031 3.42188 15.2969 5.6875
C16.4062 2.89062 19.0938 -1 24.2969 -1
C35.5938 -1 47.7969 13.6719 47.7969 28.3438
C47.7969 37.5156 42.5938 44 35.0938 44
C28.7031 44 23.2969 37.8125 22.2031 36.4219
C21.4062 41.4062 17.5 44 13.5 44
C10.5938 44 8.29688 42.6094 6.40625 38.8125
C4.59375 35.2188 3.20312 29.1406 3.20312 28.7344
C3.20312 28.3438 3.59375 27.8438 4.29688 27.8438
C5.09375 27.8438 5.20312 27.9375 5.79688 30.2344
C7.29688 36.125 9.20312 42.0156 13.2031 42.0156
C15.5 42.0156 16.2969 40.4219 16.2969 37.4531
C16.2969 35.0781 16 34.0781 15.5938 32.2969
z

M21.5938 31.1406
C22.2969 33.9219 25.0938 36.8281 26.7031 38.2188
C27.7969 39.2188 31.0938 42.0156 34.9062 42.0156
C39.2969 42.0156 41.2969 37.625 41.2969 32.4375
C41.2969 27.6406 38.5 16.3594 36 11.1719
C33.5 5.78125 28.9062 1 24.2969 1
C17.5 1 16.4062 9.57812 16.4062 9.98438
C16.4062 10.2812 16.5938 11.0781 16.7031 11.5781
z
" id="CMMI12-112"/>
    </defs>
    <g transform="translate(7.2 114.042453049)scale(0.12 -0.12)">
     <use transform="scale(0.996264009963)" xlink:href="#CMMI12-102"/>
     <use transform="translate(58.7203048383 0.0)scale(0.996264009963)" xlink:href="#CMR17-40"/>
     <use transform="translate(94.0010726378 0.0)scale(0.996264009963)" xlink:href="#CMMI12-112"/>
     <use transform="translate(142.960586643 0.0)scale(0.996264009963)" xlink:href="#CMR17-41"/>
    </g>
   </g>
   <g id="text_8">
    <!-- $p$ -->
    <g transform="translate(101.3625 87.729489833)scale(0.12 -0.12)">
     <use transform="scale(0.996264009963)" xlink:href="#CMMI12-112"/>
    </g>
   </g>
  </g>
 </g>
 <defs>
  <clipPath id="p88af2fa62c">
   <rect height="172.8" width="167.4" x="7.2" y="7.37748983305"/>
  </clipPath>
 </defs>
</svg>
