<?xml version="1.0" encoding="utf-8" standalone="no"?>
<!DOCTYPE svg PUBLIC "-//W3C//DTD SVG 1.1//EN"
  "http://www.w3.org/Graphics/SVG/1.1/DTD/svg11.dtd">
<!-- Created with matplotlib (http://matplotlib.org/) -->
<svg height="187pt" version="1.1" viewBox="0 0 181 187" width="181pt" xmlns="http://www.w3.org/2000/svg" xmlns:xlink="http://www.w3.org/1999/xlink">
 <defs>
  <style type="text/css">
*{stroke-linecap:butt;stroke-linejoin:round;stroke-miterlimit:100000;}
  </style>
 </defs>
 <g id="figure_1">
  <g id="patch_1">
   <path d="M 0 187.2 
L 181.8 187.2 
L 181.8 0 
L 0 0 
z
" style="fill:#ffffff;"/>
  </g>
  <g id="axes_1">
   <g id="patch_2">
    <path clip-path="url(#p9b1f84bb3d)" d="M 174.6 155.314286 
L 170.88 156.548571 
L 170.88 155.316754 
L 7.2 155.316754 
L 7.2 155.311817 
L 170.88 155.311817 
L 170.88 154.08 
z
" style="stroke:#000000;stroke-linejoin:miter;"/>
   </g>
   <g id="patch_3">
    <path clip-path="url(#p9b1f84bb3d)" d="M 44.4 12.137143 
L 46.26 14.605714 
L 44.4186 14.605714 
L 44.4186 165.188571 
L 44.3814 165.188571 
L 44.3814 14.605714 
L 42.54 14.605714 
z
" style="stroke:#000000;stroke-linejoin:miter;"/>
   </g>
   <g id="line2d_1">
    <path clip-path="url(#p9b1f84bb3d)" d="M 53.7 158.585143 
L 55.597959 158.221427 
L 57.495918 157.808297 
L 59.393878 157.342606 
L 61.291837 156.821206 
L 63.189796 156.240951 
L 65.087755 155.598692 
L 66.985714 154.891282 
L 68.883673 154.115574 
L 70.781633 153.268421 
L 72.679592 152.346675 
L 74.577551 151.347189 
L 76.47551 150.266815 
L 78.373469 149.102407 
L 80.271429 147.850815 
L 82.169388 146.508895 
L 84.067347 145.073497 
L 85.965306 143.541475 
L 87.863265 141.90968 
L 89.761224 140.174967 
L 91.659184 138.334187 
L 93.557143 136.384193 
L 95.455102 134.321838 
L 97.353061 132.143974 
L 99.25102 129.847454 
L 101.14898 127.42913 
L 103.046939 124.885856 
L 104.944898 122.214483 
L 106.842857 119.411865 
L 108.740816 116.474854 
L 110.638776 113.400302 
L 112.536735 110.185063 
L 114.434694 106.825988 
L 116.332653 103.319932 
L 118.230612 99.663745 
L 120.128571 95.854281 
L 122.026531 91.888392 
L 123.92449 87.762931 
L 125.822449 83.474751 
L 127.720408 79.020705 
L 129.618367 74.397644 
L 131.516327 69.602421 
L 133.414286 64.63189 
L 135.312245 59.482903 
L 137.210204 54.152311 
L 139.108163 48.636969 
L 141.006122 42.933729 
L 142.904082 37.039442 
L 144.802041 30.950963 
L 146.7 24.665143 
" style="fill:none;stroke:#0000ff;stroke-linecap:square;stroke-width:1.25;"/>
   </g>
   <g id="line2d_2">
    <path clip-path="url(#p9b1f84bb3d)" d="M 44.4 36.799653 
L 142.98 36.799653 
" style="fill:none;stroke:#808080;stroke-dasharray:6.000000,6.000000;stroke-dashoffset:0.0;"/>
   </g>
   <g id="line2d_3">
    <path clip-path="url(#p9b1f84bb3d)" d="M 142.98 36.799653 
L 142.98 155.314286 
" style="fill:none;stroke:#808080;stroke-dasharray:6.000000,6.000000;stroke-dashoffset:0.0;"/>
   </g>
   <g id="line2d_4">
    <defs>
     <path d="M 0 1.5 
C 0.397805 1.5 0.77937 1.341951 1.06066 1.06066 
C 1.341951 0.77937 1.5 0.397805 1.5 0 
C 1.5 -0.397805 1.341951 -0.77937 1.06066 -1.06066 
C 0.77937 -1.341951 0.397805 -1.5 0 -1.5 
C -0.397805 -1.5 -0.77937 -1.341951 -1.06066 -1.06066 
C -1.341951 -0.77937 -1.5 -0.397805 -1.5 0 
C -1.5 0.397805 -1.341951 0.77937 -1.06066 1.06066 
C -0.77937 1.341951 -0.397805 1.5 0 1.5 
z
" id="mc87f47793c" style="stroke:#000000;stroke-width:0.5;"/>
    </defs>
    <g clip-path="url(#p9b1f84bb3d)">
     <use style="stroke:#000000;stroke-width:0.5;" x="142.98" xlink:href="#mc87f47793c" y="36.7996525714"/>
    </g>
   </g>
   <g id="line2d_5">
    <path clip-path="url(#p9b1f84bb3d)" d="M 142.98 157.782857 
L 142.98 152.845714 
" style="fill:none;stroke:#000000;stroke-linecap:square;"/>
   </g>
   <g id="line2d_6">
    <path clip-path="url(#p9b1f84bb3d)" d="M 42.54 36.799653 
L 46.26 36.799653 
" style="fill:none;stroke:#000000;stroke-linecap:square;"/>
   </g>
   <g id="line2d_7">
    <path clip-path="url(#p9b1f84bb3d)" d="M 44.4 86.748727 
L 124.38 86.748727 
" style="fill:none;stroke:#808080;stroke-dasharray:6.000000,6.000000;stroke-dashoffset:0.0;"/>
   </g>
   <g id="line2d_8">
    <path clip-path="url(#p9b1f84bb3d)" d="M 124.38 86.748727 
L 124.38 155.314286 
" style="fill:none;stroke:#808080;stroke-dasharray:6.000000,6.000000;stroke-dashoffset:0.0;"/>
   </g>
   <g id="line2d_9">
    <g clip-path="url(#p9b1f84bb3d)">
     <use style="stroke:#000000;stroke-width:0.5;" x="124.38" xlink:href="#mc87f47793c" y="86.7487268571"/>
    </g>
   </g>
   <g id="line2d_10">
    <path clip-path="url(#p9b1f84bb3d)" d="M 124.38 157.782857 
L 124.38 152.845714 
" style="fill:none;stroke:#000000;stroke-linecap:square;"/>
   </g>
   <g id="line2d_11">
    <path clip-path="url(#p9b1f84bb3d)" d="M 42.54 86.748727 
L 46.26 86.748727 
" style="fill:none;stroke:#000000;stroke-linecap:square;"/>
   </g>
   <g id="line2d_12">
    <path clip-path="url(#p9b1f84bb3d)" d="M 96.48 161.672338 
L 97.580816 158.716169 
L 98.681633 155.759999 
L 99.782449 152.803829 
L 100.883265 149.847659 
L 101.984082 146.89149 
L 103.084898 143.93532 
L 104.185714 140.97915 
L 105.286531 138.022981 
L 106.387347 135.066811 
L 107.488163 132.110641 
L 108.58898 129.154472 
L 109.689796 126.198302 
L 110.790612 123.242132 
L 111.891429 120.285962 
L 112.992245 117.329793 
L 114.093061 114.373623 
L 115.193878 111.417453 
L 116.294694 108.461284 
L 117.39551 105.505114 
L 118.496327 102.548944 
L 119.597143 99.592775 
L 120.697959 96.636605 
L 121.798776 93.680435 
L 122.899592 90.724265 
L 124.000408 87.768096 
L 125.101224 84.811926 
L 126.202041 81.855756 
L 127.302857 78.899587 
L 128.403673 75.943417 
L 129.50449 72.987247 
L 130.605306 70.031078 
L 131.706122 67.074908 
L 132.806939 64.118738 
L 133.907755 61.162568 
L 135.008571 58.206399 
L 136.109388 55.250229 
L 137.210204 52.294059 
L 138.31102 49.33789 
L 139.411837 46.38172 
L 140.512653 43.42555 
L 141.613469 40.46938 
L 142.714286 37.513211 
L 143.815102 34.557041 
L 144.915918 31.600871 
L 146.016735 28.644702 
L 147.117551 25.688532 
L 148.218367 22.732362 
L 149.319184 19.776193 
L 150.42 16.820023 
" style="fill:none;stroke:#808080;stroke-linecap:square;stroke-width:0.75;"/>
   </g>
   <g id="line2d_13">
    <path clip-path="url(#p9b1f84bb3d)" d="M 44.4 130.345669 
L 98.847607 130.345669 
" style="fill:none;stroke:#808080;stroke-dasharray:6.000000,6.000000;stroke-dashoffset:0.0;"/>
   </g>
   <g id="line2d_14">
    <path clip-path="url(#p9b1f84bb3d)" d="M 98.847607 130.345669 
L 98.847607 155.314286 
" style="fill:none;stroke:#808080;stroke-dasharray:6.000000,6.000000;stroke-dashoffset:0.0;"/>
   </g>
   <g id="line2d_15">
    <g clip-path="url(#p9b1f84bb3d)">
     <use style="stroke:#000000;stroke-width:0.5;" x="98.8476069981" xlink:href="#mc87f47793c" y="130.345668766"/>
    </g>
   </g>
   <g id="line2d_16">
    <path clip-path="url(#p9b1f84bb3d)" d="M 98.847607 157.782857 
L 98.847607 152.845714 
" style="fill:none;stroke:#000000;stroke-linecap:square;"/>
   </g>
   <g id="line2d_17">
    <path clip-path="url(#p9b1f84bb3d)" d="M 42.54 130.345669 
L 46.26 130.345669 
" style="fill:none;stroke:#000000;stroke-linecap:square;"/>
   </g>
   <g id="line2d_18">
    <path clip-path="url(#p9b1f84bb3d)" d="M 80.247607 162.105446 
L 81.386383 160.16097 
L 82.525158 158.216494 
L 83.663934 156.272018 
L 84.802709 154.327542 
L 85.941485 152.383065 
L 87.08026 150.438589 
L 88.219036 148.494113 
L 89.357811 146.549637 
L 90.496587 144.605161 
L 91.635362 142.660685 
L 92.774138 140.716208 
L 93.912913 138.771732 
L 95.051689 136.827256 
L 96.190464 134.88278 
L 97.32924 132.938304 
L 98.468015 130.993827 
L 99.606791 129.049351 
L 100.745566 127.104875 
L 101.884342 125.160399 
L 103.023117 123.215923 
L 104.161893 121.271447 
L 105.300668 119.32697 
L 106.439444 117.382494 
L 107.578219 115.438018 
L 108.716995 113.493542 
L 109.85577 111.549066 
L 110.994546 109.60459 
L 112.133321 107.660113 
L 113.272097 105.715637 
L 114.410872 103.771161 
L 115.549648 101.826685 
L 116.688423 99.882209 
L 117.827199 97.937733 
L 118.965974 95.993256 
L 120.10475 94.04878 
L 121.243525 92.104304 
L 122.382301 90.159828 
L 123.521076 88.215352 
L 124.659852 86.270876 
L 125.798627 84.326399 
L 126.937403 82.381923 
L 128.076178 80.437447 
L 129.214954 78.492971 
L 130.353729 76.548495 
L 131.492505 74.604019 
L 132.63128 72.659542 
L 133.770056 70.715066 
L 134.908831 68.77059 
L 136.047607 66.826114 
" style="fill:none;stroke:#808080;stroke-linecap:square;stroke-width:0.75;"/>
   </g>
   <g id="line2d_19">
    <path clip-path="url(#p9b1f84bb3d)" d="M 84.224826 157.782857 
L 84.224826 152.845714 
" style="fill:none;stroke:#000000;stroke-linecap:square;"/>
   </g>
   <g id="line2d_20">
    <defs>
     <path d="M 0 1.5 
C 0.397805 1.5 0.77937 1.341951 1.06066 1.06066 
C 1.341951 0.77937 1.5 0.397805 1.5 0 
C 1.5 -0.397805 1.341951 -0.77937 1.06066 -1.06066 
C 0.77937 -1.341951 0.397805 -1.5 0 -1.5 
C -0.397805 -1.5 -0.77937 -1.341951 -1.06066 -1.06066 
C -1.341951 -0.77937 -1.5 -0.397805 -1.5 0 
C -1.5 0.397805 -1.341951 0.77937 -1.06066 1.06066 
C -0.77937 1.341951 -0.397805 1.5 0 1.5 
z
" id="mdb104ad0f3" style="stroke:#000000;stroke-width:0.5;"/>
    </defs>
    <g clip-path="url(#p9b1f84bb3d)">
     <use style="fill:#ff0000;stroke:#000000;stroke-width:0.5;" x="65.8724852346" xlink:href="#mdb104ad0f3" y="155.314285714"/>
     <use style="fill:#ff0000;stroke:#000000;stroke-width:0.5;" x="65.8724852346" xlink:href="#mdb104ad0f3" y="155.314285714"/>
    </g>
   </g>
   <g id="matplotlib.axis_1"/>
   <g id="matplotlib.axis_2"/>
   <g id="text_1">
    <!-- $x$ -->
    <defs>
     <path d="M 7.8125 2.875 
Q 9.578125 1.515625 12.796875 1.515625 
Q 15.921875 1.515625 18.3125 4.515625 
Q 20.703125 7.515625 21.578125 11.078125 
L 26.125 28.8125 
Q 27.203125 33.640625 27.203125 35.40625 
Q 27.203125 37.890625 25.8125 39.75 
Q 24.421875 41.609375 21.921875 41.609375 
Q 18.75 41.609375 15.96875 39.625 
Q 13.1875 37.640625 11.28125 34.59375 
Q 9.375 31.546875 8.59375 28.421875 
Q 8.40625 27.78125 7.8125 27.78125 
L 6.59375 27.78125 
Q 5.8125 27.78125 5.8125 28.71875 
L 5.8125 29 
Q 6.78125 32.71875 9.125 36.25 
Q 11.46875 39.796875 14.859375 41.984375 
Q 18.265625 44.1875 22.125 44.1875 
Q 25.78125 44.1875 28.734375 42.234375 
Q 31.6875 40.28125 32.90625 36.921875 
Q 34.625 39.984375 37.28125 42.078125 
Q 39.9375 44.1875 43.109375 44.1875 
Q 45.265625 44.1875 47.5 43.421875 
Q 49.75 42.671875 51.171875 41.109375 
Q 52.59375 39.546875 52.59375 37.203125 
Q 52.59375 34.671875 50.953125 32.828125 
Q 49.3125 31 46.78125 31 
Q 45.171875 31 44.09375 32.03125 
Q 43.015625 33.0625 43.015625 34.625 
Q 43.015625 36.71875 44.453125 38.296875 
Q 45.90625 39.890625 47.90625 40.1875 
Q 46.09375 41.609375 42.921875 41.609375 
Q 39.703125 41.609375 37.328125 38.625 
Q 34.96875 35.640625 33.984375 31.984375 
L 29.59375 14.3125 
Q 28.515625 10.296875 28.515625 7.71875 
Q 28.515625 5.171875 29.953125 3.34375 
Q 31.390625 1.515625 33.796875 1.515625 
Q 38.484375 1.515625 42.15625 5.640625 
Q 45.84375 9.765625 47.015625 14.703125 
Q 47.21875 15.28125 47.796875 15.28125 
L 49.03125 15.28125 
Q 49.421875 15.28125 49.65625 15.015625 
Q 49.90625 14.75 49.90625 14.40625 
Q 49.90625 14.3125 49.8125 14.109375 
Q 48.390625 8.15625 43.84375 3.515625 
Q 39.3125 -1.125 33.59375 -1.125 
Q 29.9375 -1.125 26.984375 0.84375 
Q 24.03125 2.828125 22.796875 6.203125 
Q 21.234375 3.265625 18.46875 1.0625 
Q 15.71875 -1.125 12.59375 -1.125 
Q 10.453125 -1.125 8.171875 -0.359375 
Q 5.90625 0.390625 4.484375 1.953125 
Q 3.078125 3.515625 3.078125 5.90625 
Q 3.078125 8.25 4.703125 10.171875 
Q 6.34375 12.109375 8.796875 12.109375 
Q 10.453125 12.109375 11.578125 11.109375 
Q 12.703125 10.109375 12.703125 8.5 
Q 12.703125 6.390625 11.296875 4.828125 
Q 9.90625 3.265625 7.8125 2.875 
" id="Cmmi10-78"/>
    </defs>
    <g transform="translate(165.3 172.594285714)scale(0.12 -0.12)">
     <use transform="translate(0.0 0.8125)" xlink:href="#Cmmi10-78"/>
    </g>
   </g>
   <g id="text_2">
    <!-- $y$ -->
    <defs>
     <path d="M 8.40625 -14.3125 
Q 10.5 -17.921875 15.71875 -17.921875 
Q 20.453125 -17.921875 23.921875 -14.59375 
Q 27.390625 -11.28125 29.515625 -6.5625 
Q 31.640625 -1.859375 32.8125 3.078125 
Q 28.375 -1.125 23.1875 -1.125 
Q 19.234375 -1.125 16.453125 0.234375 
Q 13.671875 1.609375 12.125 4.3125 
Q 10.59375 7.03125 10.59375 10.890625 
Q 10.59375 14.15625 11.46875 17.59375 
Q 12.359375 21.046875 13.9375 25.265625 
Q 15.53125 29.5 16.703125 32.625 
Q 18.015625 36.28125 18.015625 38.625 
Q 18.015625 41.609375 15.828125 41.609375 
Q 11.859375 41.609375 9.296875 37.53125 
Q 6.734375 33.453125 5.515625 28.421875 
Q 5.328125 27.78125 4.6875 27.78125 
L 3.515625 27.78125 
Q 2.6875 27.78125 2.6875 28.71875 
L 2.6875 29 
Q 4.296875 34.96875 7.609375 39.578125 
Q 10.9375 44.1875 16.015625 44.1875 
Q 19.578125 44.1875 22.046875 41.84375 
Q 24.515625 39.5 24.515625 35.890625 
Q 24.515625 34.03125 23.6875 31.984375 
Q 23.25 30.765625 21.6875 26.65625 
Q 20.125 22.5625 19.28125 19.875 
Q 18.453125 17.1875 17.921875 14.59375 
Q 17.390625 12.015625 17.390625 9.421875 
Q 17.390625 6.109375 18.796875 3.8125 
Q 20.21875 1.515625 23.296875 1.515625 
Q 29.5 1.515625 34.421875 9.078125 
L 42 39.890625 
Q 42.328125 41.21875 43.546875 42.15625 
Q 44.78125 43.109375 46.1875 43.109375 
Q 47.40625 43.109375 48.3125 42.328125 
Q 49.21875 41.546875 49.21875 40.28125 
Q 49.21875 39.703125 49.125 39.5 
L 39.203125 -0.296875 
Q 37.890625 -5.421875 34.375 -10.109375 
Q 30.859375 -14.796875 25.90625 -17.65625 
Q 20.953125 -20.515625 15.578125 -20.515625 
Q 12.984375 -20.515625 10.4375 -19.5 
Q 7.90625 -18.5 6.34375 -16.5 
Q 4.78125 -14.5 4.78125 -11.8125 
Q 4.78125 -9.078125 6.390625 -7.078125 
Q 8.015625 -5.078125 10.6875 -5.078125 
Q 12.3125 -5.078125 13.40625 -6.078125 
Q 14.5 -7.078125 14.5 -8.6875 
Q 14.5 -10.984375 12.78125 -12.6875 
Q 11.078125 -14.40625 8.796875 -14.40625 
Q 8.6875 -14.359375 8.59375 -14.328125 
Q 8.5 -14.3125 8.40625 -14.3125 
" id="Cmmi10-79"/>
    </defs>
    <g transform="translate(29.52 19.5428571429)scale(0.12 -0.12)">
     <use transform="translate(0.0 0.8125)" xlink:href="#Cmmi10-79"/>
    </g>
   </g>
   <g id="text_3">
    <!-- $f(x^{(1)})$ -->
    <defs>
     <path d="M 6.5 -25 
Q 5.609375 -25 5.609375 -24.125 
Q 5.609375 -23.6875 5.8125 -23.484375 
Q 22.90625 -6.78125 22.90625 25 
Q 22.90625 56.78125 6 73.296875 
Q 5.609375 73.53125 5.609375 74.125 
Q 5.609375 74.46875 5.875 74.734375 
Q 6.15625 75 6.5 75 
L 7.421875 75 
Q 7.71875 75 7.90625 74.8125 
Q 15.09375 69.140625 19.875 61.03125 
Q 24.65625 52.9375 26.875 43.75 
Q 29.109375 34.578125 29.109375 25 
Q 29.109375 17.921875 27.90625 11.0625 
Q 26.703125 4.203125 24.09375 -2.453125 
Q 21.484375 -9.125 17.484375 -14.765625 
Q 13.484375 -20.40625 7.90625 -24.8125 
Q 7.71875 -25 7.421875 -25 
z
" id="Cmr10-29"/>
     <path d="M 9.71875 -16.5 
Q 11.578125 -17.921875 14.203125 -17.921875 
Q 17.78125 -17.921875 20.015625 -10.015625 
Q 20.953125 -6.203125 25.09375 15.09375 
L 29.6875 39.59375 
L 21.09375 39.59375 
Q 20.125 39.59375 20.125 40.921875 
Q 20.515625 43.109375 21.390625 43.109375 
L 30.328125 43.109375 
L 31.5 49.609375 
Q 32.078125 52.640625 32.5625 54.8125 
Q 33.0625 56.984375 33.625 58.828125 
Q 34.1875 60.6875 35.296875 62.984375 
Q 37.015625 66.265625 39.921875 68.390625 
Q 42.828125 70.515625 46.1875 70.515625 
Q 48.390625 70.515625 50.46875 69.703125 
Q 52.546875 68.890625 53.859375 67.28125 
Q 55.171875 65.671875 55.171875 63.484375 
Q 55.171875 60.9375 53.484375 59.046875 
Q 51.8125 57.171875 49.421875 57.171875 
Q 47.796875 57.171875 46.65625 58.171875 
Q 45.515625 59.1875 45.515625 60.796875 
Q 45.515625 62.984375 47 64.625 
Q 48.484375 66.265625 50.6875 66.5 
Q 48.828125 67.921875 46.09375 67.921875 
Q 44.578125 67.921875 43.234375 66.5 
Q 41.890625 65.09375 41.5 63.484375 
Q 40.875 60.9375 38.71875 49.703125 
L 37.5 43.109375 
L 47.796875 43.109375 
Q 48.78125 43.109375 48.78125 41.796875 
Q 48.734375 41.546875 48.578125 40.9375 
Q 48.4375 40.328125 48.171875 39.953125 
Q 47.90625 39.59375 47.515625 39.59375 
L 36.8125 39.59375 
L 32.171875 15.1875 
Q 31.296875 9.859375 30.140625 4.359375 
Q 29 -1.125 26.921875 -6.90625 
Q 24.859375 -12.703125 21.625 -16.609375 
Q 18.40625 -20.515625 14.015625 -20.515625 
Q 10.640625 -20.515625 7.984375 -18.578125 
Q 5.328125 -16.65625 5.328125 -13.484375 
Q 5.328125 -10.9375 6.953125 -9.046875 
Q 8.59375 -7.171875 11.078125 -7.171875 
Q 12.75 -7.171875 13.859375 -8.171875 
Q 14.984375 -9.1875 14.984375 -10.796875 
Q 14.984375 -12.9375 13.390625 -14.71875 
Q 11.8125 -16.5 9.71875 -16.5 
" id="Cmmi10-66"/>
     <path d="M 9.28125 0 
L 9.28125 3.515625 
Q 21.78125 3.515625 21.78125 6.6875 
L 21.78125 59.1875 
Q 16.609375 56.6875 8.6875 56.6875 
L 8.6875 60.203125 
Q 20.953125 60.203125 27.203125 66.609375 
L 28.609375 66.609375 
Q 28.953125 66.609375 29.265625 66.328125 
Q 29.59375 66.0625 29.59375 65.71875 
L 29.59375 6.6875 
Q 29.59375 3.515625 42.09375 3.515625 
L 42.09375 0 
z
" id="Cmr10-31"/>
     <path d="M 31 -24.8125 
Q 25.4375 -20.40625 21.40625 -14.71875 
Q 17.390625 -9.03125 14.8125 -2.578125 
Q 12.25 3.859375 10.984375 10.890625 
Q 9.71875 17.921875 9.71875 25 
Q 9.71875 32.171875 10.984375 39.203125 
Q 12.25 46.234375 14.859375 52.734375 
Q 17.484375 59.234375 21.53125 64.890625 
Q 25.59375 70.5625 31 74.8125 
Q 31 75 31.5 75 
L 32.421875 75 
Q 32.71875 75 32.953125 74.734375 
Q 33.203125 74.46875 33.203125 74.125 
Q 33.203125 73.6875 33.015625 73.484375 
Q 28.125 68.703125 24.875 63.234375 
Q 21.625 57.765625 19.640625 51.578125 
Q 17.671875 45.40625 16.796875 38.78125 
Q 15.921875 32.171875 15.921875 25 
Q 15.921875 -6.78125 32.90625 -23.296875 
Q 33.203125 -23.578125 33.203125 -24.125 
Q 33.203125 -24.359375 32.9375 -24.671875 
Q 32.671875 -25 32.421875 -25 
L 31.5 -25 
Q 31 -25 31 -24.8125 
" id="Cmr10-28"/>
    </defs>
    <g transform="translate(7.2 37.2933668571)scale(0.12 -0.12)">
     <use transform="translate(0.0 0.23593750000000568)" xlink:href="#Cmmi10-66"/>
     <use transform="translate(48.876953125 0.23593750000000568)" xlink:href="#Cmr10-28"/>
     <use transform="translate(87.6953125 0.23593750000000568)" xlink:href="#Cmmi10-78"/>
     <use transform="translate(151.078671875 38.50000000000001)scale(0.7)" xlink:href="#Cmr10-28"/>
     <use transform="translate(178.2515234375 38.50000000000001)scale(0.7)" xlink:href="#Cmr10-31"/>
     <use transform="translate(213.2515234375 38.50000000000001)scale(0.7)" xlink:href="#Cmr10-29"/>
     <use transform="translate(246.80171874999996 0.23593750000000568)" xlink:href="#Cmr10-29"/>
    </g>
   </g>
   <g id="text_4">
    <!-- $x^{(1)}$ -->
    <g transform="translate(133.68 172.594285714)scale(0.12 -0.12)">
     <use transform="translate(0.0 0.23593750000000568)" xlink:href="#Cmmi10-78"/>
     <use transform="translate(63.383359375 38.50000000000001)scale(0.7)" xlink:href="#Cmr10-28"/>
     <use transform="translate(90.5562109375 38.50000000000001)scale(0.7)" xlink:href="#Cmr10-31"/>
     <use transform="translate(125.5562109375 38.50000000000001)scale(0.7)" xlink:href="#Cmr10-29"/>
    </g>
   </g>
   <g id="text_5">
    <!-- $f(x^{(2)})$ -->
    <defs>
     <path d="M 4.984375 0 
L 4.984375 2.6875 
Q 4.984375 2.9375 5.171875 3.21875 
L 20.703125 20.40625 
Q 24.21875 24.21875 26.40625 26.796875 
Q 28.609375 29.390625 30.75 32.765625 
Q 32.90625 36.140625 34.15625 39.625 
Q 35.40625 43.109375 35.40625 47.015625 
Q 35.40625 51.125 33.890625 54.859375 
Q 32.375 58.59375 29.375 60.84375 
Q 26.375 63.09375 22.125 63.09375 
Q 17.78125 63.09375 14.3125 60.46875 
Q 10.84375 57.859375 9.421875 53.71875 
Q 9.8125 53.8125 10.5 53.8125 
Q 12.75 53.8125 14.328125 52.296875 
Q 15.921875 50.78125 15.921875 48.390625 
Q 15.921875 46.09375 14.328125 44.5 
Q 12.75 42.921875 10.5 42.921875 
Q 8.15625 42.921875 6.5625 44.546875 
Q 4.984375 46.1875 4.984375 48.390625 
Q 4.984375 52.15625 6.390625 55.4375 
Q 7.8125 58.734375 10.46875 61.296875 
Q 13.140625 63.875 16.484375 65.234375 
Q 19.828125 66.609375 23.578125 66.609375 
Q 29.296875 66.609375 34.21875 64.1875 
Q 39.15625 61.765625 42.03125 57.34375 
Q 44.921875 52.9375 44.921875 47.015625 
Q 44.921875 42.671875 43.015625 38.765625 
Q 41.109375 34.859375 38.125 31.65625 
Q 35.15625 28.46875 30.515625 24.40625 
Q 25.875 20.359375 24.421875 19 
L 13.09375 8.109375 
L 22.703125 8.109375 
Q 29.78125 8.109375 34.546875 8.21875 
Q 39.3125 8.34375 39.59375 8.59375 
Q 40.765625 9.859375 42 17.828125 
L 44.921875 17.828125 
L 42.09375 0 
z
" id="Cmr10-32"/>
    </defs>
    <g transform="translate(7.2 87.2424411429)scale(0.12 -0.12)">
     <use transform="translate(0.0 0.23593750000000568)" xlink:href="#Cmmi10-66"/>
     <use transform="translate(48.876953125 0.23593750000000568)" xlink:href="#Cmr10-28"/>
     <use transform="translate(87.6953125 0.23593750000000568)" xlink:href="#Cmmi10-78"/>
     <use transform="translate(151.078671875 38.50000000000001)scale(0.7)" xlink:href="#Cmr10-28"/>
     <use transform="translate(178.2515234375 38.50000000000001)scale(0.7)" xlink:href="#Cmr10-32"/>
     <use transform="translate(213.2515234375 38.50000000000001)scale(0.7)" xlink:href="#Cmr10-29"/>
     <use transform="translate(246.80171874999996 0.23593750000000568)" xlink:href="#Cmr10-29"/>
    </g>
   </g>
   <g id="text_6">
    <!-- $x^{(2)}$ -->
    <g transform="translate(115.08 172.594285714)scale(0.12 -0.12)">
     <use transform="translate(0.0 0.23593750000000568)" xlink:href="#Cmmi10-78"/>
     <use transform="translate(63.383359375 38.50000000000001)scale(0.7)" xlink:href="#Cmr10-28"/>
     <use transform="translate(90.5562109375 38.50000000000001)scale(0.7)" xlink:href="#Cmr10-32"/>
     <use transform="translate(125.5562109375 38.50000000000001)scale(0.7)" xlink:href="#Cmr10-29"/>
    </g>
   </g>
   <g id="text_7">
    <!-- $f(x^{(3)})$ -->
    <defs>
     <path d="M 9.515625 7.71875 
Q 11.859375 4.296875 15.8125 2.640625 
Q 19.78125 0.984375 24.3125 0.984375 
Q 30.125 0.984375 32.5625 5.9375 
Q 35.015625 10.890625 35.015625 17.1875 
Q 35.015625 20.015625 34.5 22.84375 
Q 33.984375 25.6875 32.765625 28.125 
Q 31.546875 30.5625 29.421875 32.03125 
Q 27.296875 33.5 24.21875 33.5 
L 17.578125 33.5 
Q 16.703125 33.5 16.703125 34.421875 
L 16.703125 35.296875 
Q 16.703125 36.078125 17.578125 36.078125 
L 23.09375 36.53125 
Q 26.609375 36.53125 28.921875 39.15625 
Q 31.25 41.796875 32.328125 45.578125 
Q 33.40625 49.359375 33.40625 52.78125 
Q 33.40625 57.5625 31.15625 60.640625 
Q 28.90625 63.71875 24.3125 63.71875 
Q 20.515625 63.71875 17.046875 62.28125 
Q 13.578125 60.84375 11.53125 57.90625 
Q 11.71875 57.953125 11.859375 57.984375 
Q 12.015625 58.015625 12.203125 58.015625 
Q 14.453125 58.015625 15.96875 56.453125 
Q 17.484375 54.890625 17.484375 52.6875 
Q 17.484375 50.53125 15.96875 48.96875 
Q 14.453125 47.40625 12.203125 47.40625 
Q 10.015625 47.40625 8.453125 48.96875 
Q 6.890625 50.53125 6.890625 52.6875 
Q 6.890625 56.984375 9.46875 60.15625 
Q 12.0625 63.328125 16.140625 64.96875 
Q 20.21875 66.609375 24.3125 66.609375 
Q 27.34375 66.609375 30.703125 65.703125 
Q 34.078125 64.796875 36.8125 63.109375 
Q 39.546875 61.421875 41.28125 58.78125 
Q 43.015625 56.15625 43.015625 52.78125 
Q 43.015625 48.578125 41.140625 45.015625 
Q 39.265625 41.453125 35.984375 38.859375 
Q 32.71875 36.28125 28.8125 35.015625 
Q 33.15625 34.1875 37.0625 31.734375 
Q 40.96875 29.296875 43.328125 25.484375 
Q 45.703125 21.6875 45.703125 17.28125 
Q 45.703125 11.765625 42.671875 7.296875 
Q 39.65625 2.828125 34.71875 0.3125 
Q 29.78125 -2.203125 24.3125 -2.203125 
Q 19.625 -2.203125 14.90625 -0.40625 
Q 10.203125 1.375 7.203125 4.9375 
Q 4.203125 8.5 4.203125 13.484375 
Q 4.203125 15.96875 5.859375 17.625 
Q 7.515625 19.28125 10.015625 19.28125 
Q 11.625 19.28125 12.96875 18.53125 
Q 14.3125 17.78125 15.0625 16.40625 
Q 15.828125 15.046875 15.828125 13.484375 
Q 15.828125 11.03125 14.109375 9.375 
Q 12.40625 7.71875 10.015625 7.71875 
z
" id="Cmr10-33"/>
    </defs>
    <g transform="translate(7.2 130.839383052)scale(0.12 -0.12)">
     <use transform="translate(0.0 0.23593750000000568)" xlink:href="#Cmmi10-66"/>
     <use transform="translate(48.876953125 0.23593750000000568)" xlink:href="#Cmr10-28"/>
     <use transform="translate(87.6953125 0.23593750000000568)" xlink:href="#Cmmi10-78"/>
     <use transform="translate(151.078671875 38.50000000000001)scale(0.7)" xlink:href="#Cmr10-28"/>
     <use transform="translate(178.2515234375 38.50000000000001)scale(0.7)" xlink:href="#Cmr10-33"/>
     <use transform="translate(213.2515234375 38.50000000000001)scale(0.7)" xlink:href="#Cmr10-29"/>
     <use transform="translate(246.80171874999996 0.23593750000000568)" xlink:href="#Cmr10-29"/>
    </g>
   </g>
   <g id="text_8">
    <!-- $x^{(3)}$ -->
    <g transform="translate(91.4076069981 172.594285714)scale(0.12 -0.12)">
     <use transform="translate(0.0 0.23593750000000568)" xlink:href="#Cmmi10-78"/>
     <use transform="translate(63.383359375 38.50000000000001)scale(0.7)" xlink:href="#Cmr10-28"/>
     <use transform="translate(90.5562109375 38.50000000000001)scale(0.7)" xlink:href="#Cmr10-33"/>
     <use transform="translate(125.5562109375 38.50000000000001)scale(0.7)" xlink:href="#Cmr10-29"/>
    </g>
   </g>
   <g id="text_9">
    <!-- $x^{(4)}$ -->
    <defs>
     <path d="M 2.78125 16.5 
L 2.78125 20.015625 
L 33.6875 66.109375 
Q 34.03125 66.609375 34.71875 66.609375 
L 36.1875 66.609375 
Q 37.3125 66.609375 37.3125 65.484375 
L 37.3125 20.015625 
L 47.125 20.015625 
L 47.125 16.5 
L 37.3125 16.5 
L 37.3125 6.6875 
Q 37.3125 4.640625 40.234375 4.078125 
Q 43.171875 3.515625 47.015625 3.515625 
L 47.015625 0 
L 19.484375 0 
L 19.484375 3.515625 
Q 23.34375 3.515625 26.265625 4.078125 
Q 29.203125 4.640625 29.203125 6.6875 
L 29.203125 16.5 
z
M 6.109375 20.015625 
L 29.78125 20.015625 
L 29.78125 55.421875 
z
" id="Cmr10-34"/>
    </defs>
    <g transform="translate(73.0648258414 172.594285714)scale(0.12 -0.12)">
     <use transform="translate(0.0 0.23593750000000568)" xlink:href="#Cmmi10-78"/>
     <use transform="translate(63.383359375 38.50000000000001)scale(0.7)" xlink:href="#Cmr10-28"/>
     <use transform="translate(90.5562109375 38.50000000000001)scale(0.7)" xlink:href="#Cmr10-34"/>
     <use transform="translate(125.5562109375 38.50000000000001)scale(0.7)" xlink:href="#Cmr10-29"/>
    </g>
   </g>
   <g id="text_10">
    <!-- $x\!^{*}$ -->
    <defs>
     <path d="M 9.421875 12.703125 
Q 8.296875 12.703125 7.390625 13.640625 
Q 6.5 14.59375 6.5 15.71875 
Q 6.5 17.4375 7.90625 18.109375 
L 22.3125 25 
L 7.90625 31.78125 
Q 6.5 32.375 6.5 34.1875 
Q 6.5 35.296875 7.390625 36.25 
Q 8.296875 37.203125 9.421875 37.203125 
Q 10.15625 37.203125 10.796875 36.71875 
L 23.578125 27.390625 
L 22.125 43.703125 
Q 22.125 44.921875 22.953125 45.703125 
Q 23.78125 46.484375 25 46.484375 
Q 26.171875 46.484375 26.96875 45.75 
Q 27.78125 45.015625 27.78125 43.890625 
L 27.78125 43.703125 
L 26.3125 27.390625 
L 39.109375 36.71875 
Q 39.75 37.203125 40.484375 37.203125 
Q 41.703125 37.203125 42.546875 36.25 
Q 43.40625 35.296875 43.40625 34.1875 
Q 43.40625 32.375 42 31.78125 
L 27.59375 25 
L 42 18.109375 
Q 43.40625 17.4375 43.40625 15.71875 
Q 43.40625 14.59375 42.546875 13.640625 
Q 41.703125 12.703125 40.484375 12.703125 
Q 39.75 12.703125 39.109375 13.1875 
L 26.3125 22.515625 
L 27.78125 6.296875 
L 27.78125 6 
Q 27.78125 4.890625 26.921875 4.15625 
Q 26.078125 3.421875 25 3.421875 
Q 23.828125 3.421875 22.96875 4.21875 
Q 22.125 5.03125 22.125 6.203125 
L 23.578125 22.515625 
L 10.796875 13.1875 
Q 10.15625 12.703125 9.421875 12.703125 
" id="Cmsy10-a4"/>
    </defs>
    <g transform="translate(56.5724852346 152.845714286)scale(0.12 -0.12)">
     <use transform="translate(0.0 0.19687500000000568)" xlink:href="#Cmmi10-78"/>
     <use transform="translate(46.9117646484375 38.46093750000001)scale(0.7)" xlink:href="#Cmsy10-a4"/>
    </g>
   </g>
  </g>
 </g>
 <defs>
  <clipPath id="p9b1f84bb3d">
   <rect height="172.8" width="167.4" x="7.2" y="7.2"/>
  </clipPath>
 </defs>
</svg>
